<?xml version="1.0" encoding="UTF-8"?>
<svg id="shapes" xmlns="http://www.w3.org/2000/svg" viewBox="0 0 94.31 203.37">
  <defs>
    <style>
      .cls-1 {
        fill: #b4102b;
        stroke-width: 0px;
      }
    </style>
  </defs>
  <path class="cls-1" d="M94.31,0c-13.23,8.69-29.51,13.49-44.02,18.87-11.5,4.27-22.83,9.31-32.27,17.29C9.64,43.23,2.75,52.63.6,63.56c-1.17,5.93-.81,12.06,2.62,17.21,2.83,4.25,7.02,7.37,11.3,10.05,4.62,2.89,9.51,5.3,13.99,8.42,4.67,3.25,9.04,7.19,11.96,12.12,2.98,5.02,3.89,10.69,3.3,16.46-.61,5.86-2.55,11.52-4.23,17.14-1.7,5.67-3.29,11.5-3.29,17.46,0,5.27,1.41,10.43,4.01,15,5.24,9.23,14.5,15.72,24.21,19.58,9.5,3.78,19.71,5.11,29.84,6.39V0Z"/>
</svg>