<?xml version="1.0" encoding="UTF-8"?>
<svg id="shapes" xmlns="http://www.w3.org/2000/svg" viewBox="0 0 99.24 207.53">
  <defs>
    <style>
      .cls-1 {
        fill: #f7adc6;
        stroke-width: 0px;
      }
    </style>
  </defs>
  <path class="cls-1" d="M99.24,0c-13.95,11.02-32.58,16.32-48.95,22.4-11.5,4.27-22.83,9.31-32.27,17.29C9.64,46.76,2.75,56.16.6,67.08c-1.17,5.93-.81,12.06,2.62,17.21,2.83,4.25,7.02,7.37,11.3,10.05,4.62,2.89,9.51,5.3,13.99,8.42,4.67,3.25,9.04,7.19,11.96,12.12,2.98,5.02,3.89,10.69,3.3,16.46-.61,5.86-2.55,11.52-4.23,17.14-1.7,5.67-3.29,11.5-3.29,17.46,0,5.27,1.41,10.43,4.01,15,5.24,9.23,14.5,15.72,24.21,19.58,11.05,4.39,23.04,5.49,34.77,7.02V0Z"/>
</svg>