<?xml version="1.0" encoding="UTF-8"?>
<svg id="photo_illustration" data-name="photo/illustration" xmlns="http://www.w3.org/2000/svg" viewBox="0 0 104.53 106.88">
  <defs>
    <style>
      .cls-1 {
        fill: #f7adc6;
        stroke-width: 0px;
      }
    </style>
  </defs>
  <path class="cls-1" d="M42.55,3.55c.7,3.15.58,6.4.16,9.59-.4,3.07-1.01,6.13-1.63,9.16s-1.36,5.97-2.53,8.79-2.77,5.26-4.21,7.86c-1.44,2.6-2.57,5.32-3.17,8.24-.58,2.82-.74,5.72-.57,8.59.35,6.11,2.14,12.02,4.19,17.75.51,1.42,1.02,2.83,1.58,4.23.26.65.52,1.33.64,2.02.11.62-.03,1.21-.06,1.83-.05.98.32,1.81,1.18,2.32,1.19.71,2.62.6,3.94.52,1.58-.09,3.17-.18,4.75-.27,1.5-.08,3.02-.13,4.48-.49,1.24-.31,2.45-.86,3.29-1.86s1.23-2.16,1.58-3.34c1.71-5.79,2.63-11.82,3.05-17.84.43-6.25.12-12.48-1-18.66-.55-3.06-1.25-6.11-2.17-9.07-.42-1.36-.93-2.71-1.61-3.97-.6-1.11-1.38-2.07-2.18-3.05s-1.56-1.97-1.84-3.21c-.35-1.55-.34-3.19-.29-4.77.11-3.2.28-6.39.22-9.6-.03-1.6-.1-3.2-.21-4.8-.04-.64-1.04-.64-1,0,.21,3.2.28,6.4.19,9.6-.08,2.96-.45,5.96-.04,8.9.18,1.25.57,2.33,1.31,3.36s1.58,1.88,2.27,2.89c1.62,2.37,2.37,5.24,3.07,7.98,1.54,6.01,2.45,12.2,2.48,18.42s-.61,12.06-1.83,17.94c-.3,1.43-.63,2.84-1.01,4.25-.34,1.26-.65,2.59-1.33,3.72-1.59,2.63-5.24,2.46-7.92,2.61-1.54.09-3.09.18-4.63.26-1.09.06-3.02.24-3.62-.94-.19-.37-.15-.82-.11-1.22.06-.62.11-1.18,0-1.8-.24-1.36-.9-2.64-1.37-3.93-3.99-10.85-7.78-23.27-2.34-34.33,1.3-2.64,2.93-5.09,4.25-7.71s2.19-5.28,2.88-8.06,1.24-5.83,1.76-8.75.97-6.02.89-9.06c-.04-1.47-.21-2.93-.53-4.37-.14-.63-1.1-.36-.96.27h0Z"/>
  <path class="cls-1" d="M35.25,52.16l.82,15.51c.11,2.04-.08,4.48,1.93,5.67.91.54,2.01.8,3.03,1.02,1.12.25,2.27.4,3.42.47,2.72.16,5.46-.19,8.07-.97l-.49-.13c.14.17.25.23.47.28.29.06.66-.14.63-.48-.51-7.01.71-14.03.02-21.04-.03-.34-.41-.67-.75-.43-4.78,3.35-11.11,3.35-15.89,0-.53-.37-1.03.5-.5.86,5.04,3.53,11.86,3.53,16.9,0l-.75-.43c.69,7.01-.53,14.03-.02,21.04l.63-.48-.03-.02c-.11-.13-.33-.17-.49-.13-4.14,1.22-8.93,1.46-13.02-.09-1.02-.39-1.71-1.02-1.93-2.12s-.18-2.28-.24-3.4l-.37-7.02-.43-8.13c-.03-.64-1.03-.64-1,0h0Z"/>
  <path class="cls-1" d="M14.81,54.5c-.24.59-.9.82-1.46.98-.63.18-1.3.35-1.96.29s-1.17-.34-1.66-.71c-.45-.34-1-.75-1.3-1.23-.34-.55-1.14-.07-.86.5s.21,1.28.39,1.87c.2.66.51,1.28.79,1.91.59,1.35,1.08,2.86.8,4.35-.25,1.31-.98,2.48-1.76,3.54-.88,1.19-1.85,2.32-2.78,3.47-.87,1.07-1.98,2.15-2.57,3.41-.55,1.18-.51,2.51-.43,3.79.14,2.45.67,4.9,2.78,6.41,2.25,1.61,5.27,1.85,7.95,2,2.28.13,5.02.32,7.05-.92,2.27-1.38,2.21-4,1.85-6.33-.19-1.25-.51-2.45-1.25-3.48-.66-.92-1.51-1.68-2.25-2.53-.43-.49-.83-1.03-1.07-1.64-.33-.83-.39-1.76-.45-2.64-.12-1.68-.11-3.37.02-5.05.24-2.93,1-6-.42-8.76-.29-.57-1.16-.07-.86.5,1.2,2.33.61,5.06.35,7.53-.15,1.4-.2,2.8-.17,4.21s.05,2.83.45,4.14c.65,2.14,2.65,3.28,3.78,5.1.7,1.12.89,2.5,1.02,3.78.13,1.2.13,2.55-.66,3.55-1.4,1.77-4.22,1.64-6.23,1.58-2.68-.08-5.74-.19-8.11-1.59-2.28-1.34-2.7-3.83-2.81-6.28-.06-1.4.02-2.65.89-3.8s1.84-2.28,2.76-3.42c1.68-2.07,3.75-4.26,3.98-7.06.12-1.42-.34-2.84-.89-4.13-.29-.67-.63-1.32-.83-2.03s-.16-1.37-.46-2.01l-.86.5c.41.67,1.11,1.2,1.74,1.65.69.49,1.47.8,2.32.8,1.5,0,3.53-.49,4.15-2.01.24-.6-.72-.86-.96-.27h0Z"/>
  <path class="cls-1" d="M8.46,54.15c.67-1.14,2.4-1.51,3.62-1.41s2.42.78,3.22,1.76c.41.5,1.11-.21.71-.71-1-1.22-2.49-1.98-4.06-2.07-1.55-.09-3.52.5-4.35,1.91-.33.56.54,1.06.86.5h0Z"/>
  <path class="cls-1" d="M11.37,55.8c-.14-3.75-.29-7.5-.46-11.25-.16-3.42-.17-6.98-1.29-10.26-.21-.61-1.17-.35-.96.27,1.12,3.27,1.1,6.83,1.27,10.24.17,3.67.31,7.34.45,11,.02.64,1.02.64,1,0h0Z"/>
  <path class="cls-1" d="M14.47,55.65c-.16-4.58-.29-9.39,2.04-13.51.32-.56-.55-1.07-.86-.5-2.42,4.28-2.34,9.25-2.17,14.02.02.64,1.02.64,1,0h0Z"/>
  <path class="cls-1" d="M12.72,55.95c-.35-5.03-.32-10.09.26-15.1s1.51-9.98,3.67-14.43c.28-.58-.58-1.08-.86-.5-1.7,3.49-2.62,7.32-3.27,11.13s-1,7.95-1.03,11.95c-.02,2.32.07,4.64.23,6.96.04.64,1.05.64,1,0h0Z"/>
  <path class="cls-1" d="M59.94,104.21c3.92-3.37,7.84-6.74,11.75-10.11.49-.42-.22-1.13-.71-.71-3.92,3.37-7.84,6.74-11.75,10.11-.49.42.22,1.13.71.71h0Z"/>
  <path class="cls-1" d="M70.95,91.38c-1.9.75-4.22,2.18-4.11,4.52.05,1.12.85,1.9,1.96,1.98s2.14-.59,2.99-1.23c.96-.73,1.78-1.6,2.47-2.58.37-.53-.5-1.03-.86-.5-.61.87-1.36,1.65-2.2,2.29-.74.56-1.91,1.41-2.87.89s-.39-2,.14-2.6c.72-.81,1.76-1.4,2.75-1.79.25-.1.43-.33.35-.62-.07-.24-.36-.45-.62-.35h0Z"/>
  <path class="cls-1" d="M63.21,106.73c2.12-2.13,4.51-3.99,6.86-5.85,1.17-.93,2.34-1.84,3.52-2.76s2.34-2.01,3.68-2.68l-.75-.43c.06,1.76-1.03,3.15-2.2,4.34-.59.6-1.21,1.18-1.86,1.72-.13.11-.38.38-.54.44-.26.1-.32-.01-.51-.22-.29-.33-.42-.73-.49-1.15-.1-.63-1.06-.36-.96.27.13.84.72,2.01,1.64,2.21.5.11.85-.25,1.2-.54.51-.41,1-.84,1.48-1.29,1.63-1.53,3.32-3.38,3.23-5.77-.01-.39-.41-.6-.75-.43-1.28.64-2.39,1.67-3.52,2.55-1.23.96-2.47,1.92-3.7,2.89-2.41,1.91-4.88,3.82-7.05,6-.45.46.25,1.16.71.71h0Z"/>
  <path class="cls-1" d="M66.01,41.87c.06,3.27-.44,6.51-.35,9.78.08,2.77.55,6.09,2.56,8.17s5.59,2.18,8.23,1.55c2.62-.62,5-2.29,6.25-4.7.71-1.36.91-2.82,1.06-4.33.17-1.73.34-3.46.52-5.2.14-1.37.61-3.11-.17-4.37-.7-1.13-2.01-1.82-3.21-2.28-2.99-1.14-6.4-1.4-9.56-.99-.73.1-1.46.23-2.18.4s-1.49.33-2.12.71c-1.12.67-1.36,2.12-1.19,3.32.49,3.46,4.26,4.57,7.17,5.26,3.49.82,7.15.91,10.62-.05.62-.17.36-1.14-.27-.96-2.77.77-5.69.84-8.52.36-1.35-.23-2.68-.57-3.98-1.01-1.14-.39-2.34-.88-3.15-1.8s-1.2-2.36-.75-3.53c.26-.7.9-.9,1.56-1.09.7-.2,1.42-.37,2.14-.49,2.83-.49,5.78-.35,8.55.4,1.24.33,2.52.78,3.49,1.66.51.46.8.98.81,1.67s-.12,1.46-.19,2.18c-.15,1.53-.3,3.05-.46,4.58-.14,1.38-.19,2.82-.65,4.14-.8,2.33-2.83,4.11-5.13,4.89-1.25.42-2.56.59-3.87.53s-2.79-.31-3.87-1.16-1.71-2.27-2.1-3.6c-.45-1.53-.6-3.13-.62-4.72-.03-3.12.42-6.21.36-9.33-.01-.64-1.01-.64-1,0h0Z"/>
  <path class="cls-1" d="M72.65,61.42c0,7.37-.43,14.74-1.27,22.06-.07.64.93.63,1,0,.84-7.32,1.26-14.69,1.27-22.06,0-.64-1-.64-1,0h0Z"/>
  <path class="cls-1" d="M75.84,82.71c-.75-7.05-1.5-14.32.48-21.25.18-.62-.79-.88-.96-.27-2.01,7.02-1.27,14.37-.51,21.52.07.63,1.07.64,1,0h0Z"/>
  <path class="cls-1" d="M71.65,80.95c-1.89-.28-3.88.75-4.14,2.78s1.62,3.49,3.42,3.96c2.33.6,4.92.6,7.31.41,1.03-.08,2.16-.18,2.94-.94.62-.6.88-1.52.47-2.31-.52-1.02-1.74-1.78-2.65-2.42-1.08-.76-2.24-1.39-3.44-1.92-.58-.25-1.09.61-.5.86,1.9.83,3.9,1.95,5.35,3.46,1.08,1.13-.14,1.99-1.28,2.17s-2.3.19-3.43.18c-1.15-.01-2.31-.09-3.44-.26-1.04-.16-2.16-.42-2.95-1.16-.73-.69-1.04-1.69-.57-2.61.49-.98,1.62-1.39,2.66-1.24.63.09.9-.87.27-.96h0Z"/>
  <path class="cls-1" d="M81.52,51.71c-.35-.45-.92-.6-1.46-.72-.79-.18-1.59-.3-2.4-.36-1.8-.15-3.63.14-5.41-.17-1.48-.25-2.83-.94-3.94-1.94,0,0,0,0,0,0-.01-.01-.12-.16-.07-.08-.05-.07-.1-.14-.16-.21-.1-.11-.23-.21-.38-.25-.44-.11-.75.23-.85.62-.06.25-.06.51-.03.76,0,.04.01.09.02.13,0,0,0,.01,0,.02.07,2.61.24,5.4,1.63,7.7.66,1.1,1.58,2.06,2.79,2.52,1.31.5,2.79.39,4.17.28,1.32-.1,2.57-.39,3.54-1.35.93-.94,1.72-2.22,2.27-3.42.45-.97,1.04-2.56.29-3.53Z"/>
  <path class="cls-1" d="M103.17,57.87c-.05,2.82.31,5.62.36,8.43.05,2.62-.15,5.5-1.52,7.81-1.44,2.42-4.44,2.83-7.02,2.49-2.5-.33-4.87-1.63-6.26-3.77-.71-1.09-1.05-2.29-1.21-3.57-.18-1.49-.3-2.99-.45-4.49s-.44-2.96-.41-4.41c.03-1.37,1.31-2.17,2.44-2.69,2.52-1.14,5.52-1.44,8.26-1.28,1.42.08,2.82.32,4.19.71.64.18,1.32.35,1.62,1.01.27.6.27,1.33.14,1.97-.3,1.42-1.37,2.35-2.64,2.95-1.39.66-2.94,1.06-4.44,1.37-3.11.64-6.35.66-9.42-.2-.62-.17-.89.79-.27.96,3.1.86,6.35.88,9.5.28,1.51-.29,3.03-.69,4.46-1.27,1.21-.49,2.36-1.17,3.1-2.28s1.01-2.66.57-3.94c-.48-1.39-1.85-1.72-3.15-2.03-3.09-.74-6.33-.77-9.43-.08-2.52.56-6.13,1.75-5.92,4.92.11,1.71.34,3.41.5,5.11.16,1.61.22,3.27.58,4.84.61,2.65,2.58,4.87,5.04,5.99s5.8,1.41,8.38.32c3.14-1.33,4.05-5.18,4.29-8.25.28-3.63-.36-7.26-.3-10.9.01-.64-.99-.64-1,0h0Z"/>
  <path class="cls-1" d="M96.53,77.42c0,7.37.43,14.74,1.27,22.06.07.63,1.07.64,1,0-.84-7.32-1.26-14.69-1.27-22.06,0-.64-1-.64-1,0h0Z"/>
  <path class="cls-1" d="M95.34,98.71c.76-7.14,1.49-14.5-.51-21.52-.18-.62-1.14-.36-.96.27,1.98,6.93,1.23,14.2.48,21.25-.07.64.93.63,1,0h0Z"/>
  <path class="cls-1" d="M98.79,97.91c1.04-.15,2.17.27,2.66,1.24.47.92.16,1.93-.57,2.61-.79.75-1.91,1.01-2.95,1.16-1.14.17-2.29.25-3.44.26-1.14.01-2.31,0-3.43-.18s-2.38-1.05-1.28-2.17c1.46-1.5,3.45-2.63,5.35-3.46.59-.26.08-1.12-.5-.86-2,.87-4.12,2.08-5.62,3.69-.64.69-.9,1.58-.41,2.43s1.47,1.23,2.42,1.37c2.39.34,4.92.25,7.3-.13,1.88-.3,4.06-1.26,4.35-3.38.33-2.38-2-3.86-4.13-3.55-.63.09-.36,1.06.27.96h0Z"/>
  <path class="cls-1" d="M88.66,67.71c.35-.45.92-.6,1.46-.72.79-.18,1.59-.3,2.4-.36,1.8-.15,3.63.14,5.41-.17,1.48-.25,2.83-.94,3.94-1.94,0,0,0,0,0,0,.01-.01.12-.16.07-.08.05-.07.1-.14.16-.21.1-.11.23-.21.38-.25.44-.11.75.23.85.62.06.25.06.51.03.76,0,.04-.01.09-.02.13,0,0,0,.01,0,.02-.07,2.61-.24,5.4-1.63,7.7-.66,1.1-1.58,2.06-2.79,2.52-1.31.5-2.79.39-4.17.28-1.32-.1-2.57-.39-3.54-1.35-.93-.94-1.72-2.22-2.27-3.42-.45-.97-1.04-2.56-.29-3.53Z"/>
  <path class="cls-1" d="M18.12,19.89c-.84-1.39-2.47-2.21-3.83-.96-.55.51-.93,1.12-.44,1.81.51.73,1.27,1.32,1.98,1.85l.25-.93c-1.61-.12-5.07.94-4.24,3.15.32.87,1.09,1.55,1.99,1.77,1.15.29,2.21-.26,3.14-.9l-.73-.3c.54,1.89,2.52,3.31,4.51,2.87.93-.21,1.76-.94,1.85-1.92.1-1.07-.71-1.83-1.5-2.4l-.39.91c1.01.14,2.01.06,2.96-.35.82-.35,1.82-1,1.81-2.01,0-.87-.98-1.72-1.7-2.08-.79-.4-1.79-.35-2.39.35l.84.49c.3-1.56.39-3.86-1.6-4.32-1.73-.4-2.79,1.77-3.06,3.13-.12.63.84.9.96.27.15-.78.74-2.57,1.81-2.43,1.41.19,1.1,2.16.92,3.09-.08.44.48.9.84.49.78-.92,2.83.6,2.19,1.43-.7.91-2.27,1.13-3.32.98-.56-.08-.87.57-.39.91s1.18.9.98,1.6c-.21.75-1.09.99-1.77.93-1.23-.1-2.26-1.04-2.59-2.2-.08-.29-.46-.49-.73-.3-.61.42-1.3.89-2.07.84-.67-.04-1.3-.49-1.57-1.1-.19-.44-.05-.69.29-.98.26-.22.56-.41.87-.56.66-.31,1.38-.41,2.1-.36.55.04.61-.67.25-.93-.39-.29-.76-.6-1.11-.95-.14-.14-.44-.36-.51-.54-.1-.28,0-.33.21-.54.89-.84,1.8-.18,2.33.69.33.55,1.2.05.86-.5h0Z"/>
  <path class="cls-1" d="M19.5,21.91c-1.01-.79-2.25.78-1.23,1.58s2.25-.78,1.23-1.58Z"/>
  <path class="cls-1" d="M18.77,34.44c-1.42-.81-3.24-.73-3.81,1.03-.23.71-.26,1.41.49,1.79.8.4,1.78.54,2.65.65l-.25-.93c-1.52.69-3.99,3.36-2.1,4.87.75.6,1.81.78,2.72.47,1.04-.36,1.65-1.32,2.12-2.26l-.79.1c1.39,1.39,3.81,1.66,5.33.31.73-.65,1.09-1.75.64-2.66s-1.52-1.17-2.45-1.28l.13.98c.92-.35,1.73-.89,2.35-1.66.54-.67,1.06-1.6.77-2.49s-1.59-1.2-2.43-1.22c-.93-.03-1.91.5-2.09,1.47h.96c-.49-1.47-1.38-3.32-3.25-3.04-1.93.29-1.85,2.89-1.39,4.29.2.61,1.16.35.96-.27-.26-.79-.62-2.98.7-3.05,1.23-.06,1.71,1.4,2.02,2.33.14.43.87.52.96,0,.13-.69.86-.81,1.46-.7.3.06.68.13.94.29s.26.43.19.71c-.27,1.1-1.42,1.99-2.42,2.37-.54.2-.43.92.13.98s1.37.2,1.6.82c.27.73-.34,1.4-.93,1.71-1.14.6-2.59.29-3.48-.6-.21-.22-.64-.19-.79.1-.32.65-.7,1.4-1.38,1.74-.59.29-1.33.23-1.86-.14-.38-.26-.47-.5-.33-.93.11-.35.29-.69.5-.99.43-.62,1.02-1.08,1.71-1.39.51-.23.17-.88-.25-.93-.53-.07-1.06-.18-1.58-.33-.14-.04-.62-.12-.7-.25-.07-.12.04-.38.08-.5.37-1.16,1.48-1.03,2.37-.52.56.32,1.06-.54.5-.86h0Z"/>
  <path class="cls-1" d="M20.96,35.53c-1.27-.2-1.58,1.78-.31,1.98s1.58-1.78.31-1.98Z"/>
  <path class="cls-1" d="M8.33,30.27c1.34-.89,2.14-2.56.82-3.86-.52-.52-1.15-.9-1.83-.39s-1.28,1.33-1.76,2.06l.93.25c.05-1.64-1.16-5.06-3.35-4.11-.86.37-1.51,1.19-1.67,2.12-.21,1.13.38,2.14,1.04,3.01l.3-.73c-1.86.62-3.22,2.64-2.69,4.62.24.92.99,1.7,1.97,1.78,1.08.08,1.83-.76,2.37-1.59l-.93-.25c-.1,1.03.09,2.07.57,3,.4.77,1.11,1.64,2.08,1.56.86-.08,1.65-1.12,1.97-1.85.33-.78.23-1.75-.47-2.29l-.49.84c1.57.23,3.77.26,4.25-1.68.45-1.78-1.83-2.8-3.22-3.01-.63-.1-.9.87-.27.96.8.12,2.72.66,2.52,1.78-.24,1.33-2.08,1.12-3.02.98-.42-.06-.93.49-.49.84.5.39.41,1,.1,1.49s-.89,1.22-1.5.72c-.91-.75-1.14-2.23-1.03-3.33.05-.53-.68-.63-.93-.25-.33.51-.82,1.2-1.52,1.08-.78-.14-1.07-1.02-1.05-1.71.04-1.23.92-2.32,2.06-2.71.27-.09.51-.46.3-.73-.43-.57-.9-1.21-.94-1.94-.04-.67.34-1.33.91-1.67,1.44-.86,2.19,2.13,2.16,3.1-.02.52.67.64.93.25s.56-.79.89-1.15c.16-.17.32-.4.52-.53.25-.18.34-.04.55.15.89.83.3,1.79-.55,2.36-.53.36-.03,1.22.5.86h0Z"/>
  <path class="cls-1" d="M6.4,31.73c.75-1.05-.88-2.21-1.63-1.16s.88,2.21,1.63,1.16Z"/>
  <g>
    <path class="cls-1" d="M42.55,3.55c.7,3.15.58,6.4.16,9.59-.4,3.07-1.01,6.13-1.63,9.16s-1.36,5.97-2.53,8.79-2.77,5.26-4.21,7.86c-1.44,2.6-2.57,5.32-3.17,8.24-.58,2.82-.74,5.72-.57,8.59.35,6.11,2.14,12.02,4.19,17.75.51,1.42,1.02,2.83,1.58,4.23.26.65.52,1.33.64,2.02.11.62-.03,1.21-.06,1.83-.05.98.32,1.81,1.18,2.32,1.19.71,2.62.6,3.94.52,1.58-.09,3.17-.18,4.75-.27,1.5-.08,3.02-.13,4.48-.49,1.24-.31,2.45-.86,3.29-1.86s1.23-2.16,1.58-3.34c1.71-5.79,2.63-11.82,3.05-17.84.43-6.25.12-12.48-1-18.66-.55-3.06-1.25-6.11-2.17-9.07-.42-1.36-.93-2.71-1.61-3.97-.6-1.11-1.38-2.07-2.18-3.05s-1.56-1.97-1.84-3.21c-.35-1.55-.34-3.19-.29-4.77.11-3.2.28-6.39.22-9.6-.03-1.6-.1-3.2-.21-4.8-.04-.64-1.04-.64-1,0,.21,3.2.28,6.4.19,9.6-.08,2.96-.45,5.96-.04,8.9.18,1.25.57,2.33,1.31,3.36s1.58,1.88,2.27,2.89c1.62,2.37,2.37,5.24,3.07,7.98,1.54,6.01,2.45,12.2,2.48,18.42s-.61,12.06-1.83,17.94c-.3,1.43-.63,2.84-1.01,4.25-.34,1.26-.65,2.59-1.33,3.72-1.59,2.63-5.24,2.46-7.92,2.61-1.54.09-3.09.18-4.63.26-1.09.06-3.02.24-3.62-.94-.19-.37-.15-.82-.11-1.22.06-.62.11-1.18,0-1.8-.24-1.36-.9-2.64-1.37-3.93-3.99-10.85-7.78-23.27-2.34-34.33,1.3-2.64,2.93-5.09,4.25-7.71s2.19-5.28,2.88-8.06,1.24-5.83,1.76-8.75.97-6.02.89-9.06c-.04-1.47-.21-2.93-.53-4.37-.14-.63-1.1-.36-.96.27h0Z"/>
    <path class="cls-1" d="M43.4,3.23c1.08.7,2.32,1.11,3.61,1.2,1.19.08,2.58-.11,3.18-1.29.55-1.09.04-2.36-1.09-2.78-1.21-.44-2.65-.44-3.9-.22-.68.12-1.43.3-2.02.65s-.97,1.09-.57,1.74c.33.55,1.2.05.86-.5-.23-.38.96-.68,1.17-.74.58-.17,1.17-.26,1.77-.29s1.2.02,1.79.14c.51.11,1.03.23,1.18.79.12.45-.1.9-.46,1.17-.45.34-1.08.34-1.62.32-1.21-.03-2.38-.42-3.4-1.08-.54-.35-1.04.52-.5.86h0Z"/>
    <path class="cls-1" d="M43.3,11.05c2.2.75,4.59,1.44,6.82.39.58-.27.08-1.14-.5-.86-1.94.91-4.15.15-6.05-.49-.61-.21-.87.76-.27.96h0Z"/>
    <path class="cls-1" d="M35.25,52.16l.82,15.51c.11,2.04-.08,4.48,1.93,5.67.91.54,2.01.8,3.03,1.02,1.12.25,2.27.4,3.42.47,2.72.16,5.46-.19,8.07-.97l-.49-.13c.14.17.25.23.47.28.29.06.66-.14.63-.48-.51-7.01.71-14.03.02-21.04-.03-.34-.41-.67-.75-.43-4.78,3.35-11.11,3.35-15.89,0-.53-.37-1.03.5-.5.86,5.04,3.53,11.86,3.53,16.9,0l-.75-.43c.69,7.01-.53,14.03-.02,21.04l.63-.48-.03-.02c-.11-.13-.33-.17-.49-.13-4.14,1.22-8.93,1.46-13.02-.09-1.02-.39-1.71-1.02-1.93-2.12s-.18-2.28-.24-3.4l-.37-7.02-.43-8.13c-.03-.64-1.03-.64-1,0h0Z"/>
    <path class="cls-1" d="M14.81,54.5c-.24.59-.9.82-1.46.98-.63.18-1.3.35-1.96.29s-1.17-.34-1.66-.71c-.45-.34-1-.75-1.3-1.23-.34-.55-1.14-.07-.86.5s.21,1.28.39,1.87c.2.66.51,1.28.79,1.91.59,1.35,1.08,2.86.8,4.35-.25,1.31-.98,2.48-1.76,3.54-.88,1.19-1.85,2.32-2.78,3.47-.87,1.07-1.98,2.15-2.57,3.41-.55,1.18-.51,2.51-.43,3.79.14,2.45.67,4.9,2.78,6.41,2.25,1.61,5.27,1.85,7.95,2,2.28.13,5.02.32,7.05-.92,2.27-1.38,2.21-4,1.85-6.33-.19-1.25-.51-2.45-1.25-3.48-.66-.92-1.51-1.68-2.25-2.53-.43-.49-.83-1.03-1.07-1.64-.33-.83-.39-1.76-.45-2.64-.12-1.68-.11-3.37.02-5.05.24-2.93,1-6-.42-8.76-.29-.57-1.16-.07-.86.5,1.2,2.33.61,5.06.35,7.53-.15,1.4-.2,2.8-.17,4.21s.05,2.83.45,4.14c.65,2.14,2.65,3.28,3.78,5.1.7,1.12.89,2.5,1.02,3.78.13,1.2.13,2.55-.66,3.55-1.4,1.77-4.22,1.64-6.23,1.58-2.68-.08-5.74-.19-8.11-1.59-2.28-1.34-2.7-3.83-2.81-6.28-.06-1.4.02-2.65.89-3.8s1.84-2.28,2.76-3.42c1.68-2.07,3.75-4.26,3.98-7.06.12-1.42-.34-2.84-.89-4.13-.29-.67-.63-1.32-.83-2.03s-.16-1.37-.46-2.01l-.86.5c.41.67,1.11,1.2,1.74,1.65.69.49,1.47.8,2.32.8,1.5,0,3.53-.49,4.15-2.01.24-.6-.72-.86-.96-.27h0Z"/>
    <path class="cls-1" d="M8.46,54.15c.67-1.14,2.4-1.51,3.62-1.41s2.42.78,3.22,1.76c.41.5,1.11-.21.71-.71-1-1.22-2.49-1.98-4.06-2.07-1.55-.09-3.52.5-4.35,1.91-.33.56.54,1.06.86.5h0Z"/>
    <path class="cls-1" d="M11.37,55.8c-.14-3.75-.29-7.5-.46-11.25-.16-3.42-.17-6.98-1.29-10.26-.21-.61-1.17-.35-.96.27,1.12,3.27,1.1,6.83,1.27,10.24.17,3.67.31,7.34.45,11,.02.64,1.02.64,1,0h0Z"/>
    <path class="cls-1" d="M14.47,55.65c-.16-4.58-.29-9.39,2.04-13.51.32-.56-.55-1.07-.86-.5-2.42,4.28-2.34,9.25-2.17,14.02.02.64,1.02.64,1,0h0Z"/>
    <path class="cls-1" d="M12.72,55.95c-.35-5.03-.32-10.09.26-15.1s1.51-9.98,3.67-14.43c.28-.58-.58-1.08-.86-.5-1.7,3.49-2.62,7.32-3.27,11.13s-1,7.95-1.03,11.95c-.02,2.32.07,4.64.23,6.96.04.64,1.05.64,1,0h0Z"/>
    <path class="cls-1" d="M59.94,104.21c3.92-3.37,7.84-6.74,11.75-10.11.49-.42-.22-1.13-.71-.71-3.92,3.37-7.84,6.74-11.75,10.11-.49.42.22,1.13.71.71h0Z"/>
    <path class="cls-1" d="M70.95,91.38c-1.9.75-4.22,2.18-4.11,4.52.05,1.12.85,1.9,1.96,1.98s2.14-.59,2.99-1.23c.96-.73,1.78-1.6,2.47-2.58.37-.53-.5-1.03-.86-.5-.61.87-1.36,1.65-2.2,2.29-.74.56-1.91,1.41-2.87.89s-.39-2,.14-2.6c.72-.81,1.76-1.4,2.75-1.79.25-.1.43-.33.35-.62-.07-.24-.36-.45-.62-.35h0Z"/>
    <path class="cls-1" d="M63.21,106.73c2.12-2.13,4.51-3.99,6.86-5.85,1.17-.93,2.34-1.84,3.52-2.76s2.34-2.01,3.68-2.68l-.75-.43c.06,1.76-1.03,3.15-2.2,4.34-.59.6-1.21,1.18-1.86,1.72-.13.11-.38.38-.54.44-.26.1-.32-.01-.51-.22-.29-.33-.42-.73-.49-1.15-.1-.63-1.06-.36-.96.27.13.84.72,2.01,1.64,2.21.5.11.85-.25,1.2-.54.51-.41,1-.84,1.48-1.29,1.63-1.53,3.32-3.38,3.23-5.77-.01-.39-.41-.6-.75-.43-1.28.64-2.39,1.67-3.52,2.55-1.23.96-2.47,1.92-3.7,2.89-2.41,1.91-4.88,3.82-7.05,6-.45.46.25,1.16.71.71h0Z"/>
    <path class="cls-1" d="M66.01,41.87c.06,3.27-.44,6.51-.35,9.78.08,2.77.55,6.09,2.56,8.17s5.59,2.18,8.23,1.55c2.62-.62,5-2.29,6.25-4.7.71-1.36.91-2.82,1.06-4.33.17-1.73.34-3.46.52-5.2.14-1.37.61-3.11-.17-4.37-.7-1.13-2.01-1.82-3.21-2.28-2.99-1.14-6.4-1.4-9.56-.99-.73.1-1.46.23-2.18.4s-1.49.33-2.12.71c-1.12.67-1.36,2.12-1.19,3.32.49,3.46,4.26,4.57,7.17,5.26,3.49.82,7.15.91,10.62-.05.62-.17.36-1.14-.27-.96-2.77.77-5.69.84-8.52.36-1.35-.23-2.68-.57-3.98-1.01-1.14-.39-2.34-.88-3.15-1.8s-1.2-2.36-.75-3.53c.26-.7.9-.9,1.56-1.09.7-.2,1.42-.37,2.14-.49,2.83-.49,5.78-.35,8.55.4,1.24.33,2.52.78,3.49,1.66.51.46.8.98.81,1.67s-.12,1.46-.19,2.18c-.15,1.53-.3,3.05-.46,4.58-.14,1.38-.19,2.82-.65,4.14-.8,2.33-2.83,4.11-5.13,4.89-1.25.42-2.56.59-3.87.53s-2.79-.31-3.87-1.16-1.71-2.27-2.1-3.6c-.45-1.53-.6-3.13-.62-4.72-.03-3.12.42-6.21.36-9.33-.01-.64-1.01-.64-1,0h0Z"/>
    <path class="cls-1" d="M72.65,61.42c0,7.37-.43,14.74-1.27,22.06-.07.64.93.63,1,0,.84-7.32,1.26-14.69,1.27-22.06,0-.64-1-.64-1,0h0Z"/>
    <path class="cls-1" d="M75.84,82.71c-.75-7.05-1.5-14.32.48-21.25.18-.62-.79-.88-.96-.27-2.01,7.02-1.27,14.37-.51,21.52.07.63,1.07.64,1,0h0Z"/>
    <path class="cls-1" d="M71.65,80.95c-1.89-.28-3.88.75-4.14,2.78s1.62,3.49,3.42,3.96c2.33.6,4.92.6,7.31.41,1.03-.08,2.16-.18,2.94-.94.62-.6.88-1.52.47-2.31-.52-1.02-1.74-1.78-2.65-2.42-1.08-.76-2.24-1.39-3.44-1.92-.58-.25-1.09.61-.5.86,1.9.83,3.9,1.95,5.35,3.46,1.08,1.13-.14,1.99-1.28,2.17s-2.3.19-3.43.18c-1.15-.01-2.31-.09-3.44-.26-1.04-.16-2.16-.42-2.95-1.16-.73-.69-1.04-1.69-.57-2.61.49-.98,1.62-1.39,2.66-1.24.63.09.9-.87.27-.96h0Z"/>
    <path class="cls-1" d="M81.52,51.71c-.35-.45-.92-.6-1.46-.72-.79-.18-1.59-.3-2.4-.36-1.8-.15-3.63.14-5.41-.17-1.48-.25-2.83-.94-3.94-1.94,0,0,0,0,0,0-.01-.01-.12-.16-.07-.08-.05-.07-.1-.14-.16-.21-.1-.11-.23-.21-.38-.25-.44-.11-.75.23-.85.62-.06.25-.06.51-.03.76,0,.04.01.09.02.13,0,0,0,.01,0,.02.07,2.61.24,5.4,1.63,7.7.66,1.1,1.58,2.06,2.79,2.52,1.31.5,2.79.39,4.17.28,1.32-.1,2.57-.39,3.54-1.35.93-.94,1.72-2.22,2.27-3.42.45-.97,1.04-2.56.29-3.53Z"/>
    <path class="cls-1" d="M103.17,57.87c-.05,2.82.31,5.62.36,8.43.05,2.62-.15,5.5-1.52,7.81-1.44,2.42-4.44,2.83-7.02,2.49-2.5-.33-4.87-1.63-6.26-3.77-.71-1.09-1.05-2.29-1.21-3.57-.18-1.49-.3-2.99-.45-4.49s-.44-2.96-.41-4.41c.03-1.37,1.31-2.17,2.44-2.69,2.52-1.14,5.52-1.44,8.26-1.28,1.42.08,2.82.32,4.19.71.64.18,1.32.35,1.62,1.01.27.6.27,1.33.14,1.97-.3,1.42-1.37,2.35-2.64,2.95-1.39.66-2.94,1.06-4.44,1.37-3.11.64-6.35.66-9.42-.2-.62-.17-.89.79-.27.96,3.1.86,6.35.88,9.5.28,1.51-.29,3.03-.69,4.46-1.27,1.21-.49,2.36-1.17,3.1-2.28s1.01-2.66.57-3.94c-.48-1.39-1.85-1.72-3.15-2.03-3.09-.74-6.33-.77-9.43-.08-2.52.56-6.13,1.75-5.92,4.92.11,1.71.34,3.41.5,5.11.16,1.61.22,3.27.58,4.84.61,2.65,2.58,4.87,5.04,5.99s5.8,1.41,8.38.32c3.14-1.33,4.05-5.18,4.29-8.25.28-3.63-.36-7.26-.3-10.9.01-.64-.99-.64-1,0h0Z"/>
    <path class="cls-1" d="M96.53,77.42c0,7.37.43,14.74,1.27,22.06.07.63,1.07.64,1,0-.84-7.32-1.26-14.69-1.27-22.06,0-.64-1-.64-1,0h0Z"/>
    <path class="cls-1" d="M95.34,98.71c.76-7.14,1.49-14.5-.51-21.52-.18-.62-1.14-.36-.96.27,1.98,6.93,1.23,14.2.48,21.25-.07.64.93.63,1,0h0Z"/>
    <path class="cls-1" d="M98.79,97.91c1.04-.15,2.17.27,2.66,1.24.47.92.16,1.93-.57,2.61-.79.75-1.91,1.01-2.95,1.16-1.14.17-2.29.25-3.44.26-1.14.01-2.31,0-3.43-.18s-2.38-1.05-1.28-2.17c1.46-1.5,3.45-2.63,5.35-3.46.59-.26.08-1.12-.5-.86-2,.87-4.12,2.08-5.62,3.69-.64.69-.9,1.58-.41,2.43s1.47,1.23,2.42,1.37c2.39.34,4.92.25,7.3-.13,1.88-.3,4.06-1.26,4.35-3.38.33-2.38-2-3.86-4.13-3.55-.63.09-.36,1.06.27.96h0Z"/>
    <path class="cls-1" d="M88.66,67.71c.35-.45.92-.6,1.46-.72.79-.18,1.59-.3,2.4-.36,1.8-.15,3.63.14,5.41-.17,1.48-.25,2.83-.94,3.94-1.94,0,0,0,0,0,0,.01-.01.12-.16.07-.08.05-.07.1-.14.16-.21.1-.11.23-.21.38-.25.44-.11.75.23.85.62.06.25.06.51.03.76,0,.04-.01.09-.02.13,0,0,0,.01,0,.02-.07,2.61-.24,5.4-1.63,7.7-.66,1.1-1.58,2.06-2.79,2.52-1.31.5-2.79.39-4.17.28-1.32-.1-2.57-.39-3.54-1.35-.93-.94-1.72-2.22-2.27-3.42-.45-.97-1.04-2.56-.29-3.53Z"/>
    <path class="cls-1" d="M18.12,19.89c-.84-1.39-2.47-2.21-3.83-.96-.55.51-.93,1.12-.44,1.81.51.73,1.27,1.32,1.98,1.85l.25-.93c-1.61-.12-5.07.94-4.24,3.15.32.87,1.09,1.55,1.99,1.77,1.15.29,2.21-.26,3.14-.9l-.73-.3c.54,1.89,2.52,3.31,4.51,2.87.93-.21,1.76-.94,1.85-1.92.1-1.07-.71-1.83-1.5-2.4l-.39.91c1.01.14,2.01.06,2.96-.35.82-.35,1.82-1,1.81-2.01,0-.87-.98-1.72-1.7-2.08-.79-.4-1.79-.35-2.39.35l.84.49c.3-1.56.39-3.86-1.6-4.32-1.73-.4-2.79,1.77-3.06,3.13-.12.63.84.9.96.27.15-.78.74-2.57,1.81-2.43,1.41.19,1.1,2.16.92,3.09-.08.44.48.9.84.49.78-.92,2.83.6,2.19,1.43-.7.91-2.27,1.13-3.32.98-.56-.08-.87.57-.39.91s1.18.9.98,1.6c-.21.75-1.09.99-1.77.93-1.23-.1-2.26-1.04-2.59-2.2-.08-.29-.46-.49-.73-.3-.61.42-1.3.89-2.07.84-.67-.04-1.3-.49-1.57-1.1-.19-.44-.05-.69.29-.98.26-.22.56-.41.87-.56.66-.31,1.38-.41,2.1-.36.55.04.61-.67.25-.93-.39-.29-.76-.6-1.11-.95-.14-.14-.44-.36-.51-.54-.1-.28,0-.33.21-.54.89-.84,1.8-.18,2.33.69.33.55,1.2.05.86-.5h0Z"/>
    <path class="cls-1" d="M19.5,21.91c-1.01-.79-2.25.78-1.23,1.58s2.25-.78,1.23-1.58Z"/>
    <path class="cls-1" d="M18.77,34.44c-1.42-.81-3.24-.73-3.81,1.03-.23.71-.26,1.41.49,1.79.8.4,1.78.54,2.65.65l-.25-.93c-1.52.69-3.99,3.36-2.1,4.87.75.6,1.81.78,2.72.47,1.04-.36,1.65-1.32,2.12-2.26l-.79.1c1.39,1.39,3.81,1.66,5.33.31.73-.65,1.09-1.75.64-2.66s-1.52-1.17-2.45-1.28l.13.98c.92-.35,1.73-.89,2.35-1.66.54-.67,1.06-1.6.77-2.49s-1.59-1.2-2.43-1.22c-.93-.03-1.91.5-2.09,1.47h.96c-.49-1.47-1.38-3.32-3.25-3.04-1.93.29-1.85,2.89-1.39,4.29.2.61,1.16.35.96-.27-.26-.79-.62-2.98.7-3.05,1.23-.06,1.71,1.4,2.02,2.33.14.43.87.52.96,0,.13-.69.86-.81,1.46-.7.3.06.68.13.94.29s.26.43.19.71c-.27,1.1-1.42,1.99-2.42,2.37-.54.2-.43.92.13.98s1.37.2,1.6.82c.27.73-.34,1.4-.93,1.71-1.14.6-2.59.29-3.48-.6-.21-.22-.64-.19-.79.1-.32.65-.7,1.4-1.38,1.74-.59.29-1.33.23-1.86-.14-.38-.26-.47-.5-.33-.93.11-.35.29-.69.5-.99.43-.62,1.02-1.08,1.71-1.39.51-.23.17-.88-.25-.93-.53-.07-1.06-.18-1.58-.33-.14-.04-.62-.12-.7-.25-.07-.12.04-.38.08-.5.37-1.16,1.48-1.03,2.37-.52.56.32,1.06-.54.5-.86h0Z"/>
    <path class="cls-1" d="M20.96,35.53c-1.27-.2-1.58,1.78-.31,1.98s1.58-1.78.31-1.98Z"/>
    <path class="cls-1" d="M8.33,30.27c1.34-.89,2.14-2.56.82-3.86-.52-.52-1.15-.9-1.83-.39s-1.28,1.33-1.76,2.06l.93.25c.05-1.64-1.16-5.06-3.35-4.11-.86.37-1.51,1.19-1.67,2.12-.21,1.13.38,2.14,1.04,3.01l.3-.73c-1.86.62-3.22,2.64-2.69,4.62.24.92.99,1.7,1.97,1.78,1.08.08,1.83-.76,2.37-1.59l-.93-.25c-.1,1.03.09,2.07.57,3,.4.77,1.11,1.64,2.08,1.56.86-.08,1.65-1.12,1.97-1.85.33-.78.23-1.75-.47-2.29l-.49.84c1.57.23,3.77.26,4.25-1.68.45-1.78-1.83-2.8-3.22-3.01-.63-.1-.9.87-.27.96.8.12,2.72.66,2.52,1.78-.24,1.33-2.08,1.12-3.02.98-.42-.06-.93.49-.49.84.5.39.41,1,.1,1.49s-.89,1.22-1.5.72c-.91-.75-1.14-2.23-1.03-3.33.05-.53-.68-.63-.93-.25-.33.51-.82,1.2-1.52,1.08-.78-.14-1.07-1.02-1.05-1.71.04-1.23.92-2.32,2.06-2.71.27-.09.51-.46.3-.73-.43-.57-.9-1.21-.94-1.94-.04-.67.34-1.33.91-1.67,1.44-.86,2.19,2.13,2.16,3.1-.02.52.67.64.93.25s.56-.79.89-1.15c.16-.17.32-.4.52-.53.25-.18.34-.04.55.15.89.83.3,1.79-.55,2.36-.53.36-.03,1.22.5.86h0Z"/>
    <path class="cls-1" d="M6.4,31.73c.75-1.05-.88-2.21-1.63-1.16s.88,2.21,1.63,1.16Z"/>
  </g>
</svg>