<?xml version="1.0" encoding="UTF-8"?>
<svg id="shapes" xmlns="http://www.w3.org/2000/svg" viewBox="0 0 85.59 298.84">
  <defs>
    <style>
      .cls-1 {
        fill: #b4102b;
        stroke-width: 0px;
      }
    </style>
  </defs>
  <path class="cls-1" d="M85.59.2c-9.6-.71-19.15.29-27.73,5.39-6.18,3.67-10.71,9.22-13.02,16.03-2.33,6.85-2.54,14.21-3.05,21.36-.52,7.3-1.3,14.89-5,21.36-3.49,6.1-9.13,10.54-14.61,14.75-5.25,4.04-10.65,8.04-14.7,13.36-4.6,6.05-6.69,13.47-7.27,20.97-.59,7.71-.02,16.01,2.36,23.4,1.09,3.4,2.66,6.65,4.85,9.48,2.3,2.97,5.22,5.33,8.28,7.47,6.03,4.2,12.43,7.73,16.81,13.83,4.02,5.6,6.39,12.36,6.85,19.23.46,6.88-.98,13.74-4.39,19.75-3.95,6.96-9.77,12.74-13.15,20.04-5.93,12.79-2.83,27.78,4.62,39.26,8.39,12.92,22.18,20.89,36.31,26.16,7.44,2.78,15.12,4.92,22.83,6.81V.2Z"/>
</svg>