<?xml version="1.0" encoding="UTF-8"?>
<svg id="photo_illustration" data-name="photo/illustration" xmlns="http://www.w3.org/2000/svg" viewBox="0 0 189.94 178.45">
  <defs>
    <style>
      .cls-1 {
        fill: #b4102b;
        stroke-width: 0px;
      }
    </style>
  </defs>
  <path class="cls-1" d="M17.89,123.73c9.13-6.5,18.34-12.89,27.82-18.88,9.35-5.91,18.99-11.35,28.72-16.62,5.48-2.97,11-5.88,16.51-8.79.57-.3.06-1.16-.5-.86-9.82,5.18-19.64,10.36-29.28,15.86-9.67,5.51-19.09,11.4-28.3,17.64-5.2,3.52-10.35,7.13-15.47,10.78-.52.37-.02,1.24.5.86h0Z"/>
  <path class="cls-1" d="M102.55,75.2c-.04-.62-.12-1.29-.58-1.75-.52-.51-1.29-.55-1.97-.56-1.7-.03-3.41.15-5.08.49-.79.16-1.58.36-2.35.62-.66.22-1.27.54-1.48,1.25s-.13,1.62-.15,2.37l-.09,2.99-.08,2.62-.04,1.37c0,.32-.12.75.07,1.04.22.35.83.55,1.19.74.75.39,1.55.72,2.36.97,1.53.48,3.15.68,4.74.47,1.11-.15,2.81-.37,3.53-1.35.45-.6.21-1.53.22-2.22,0-.95,0-1.9-.09-2.85-.19-2.07-.07-4.14-.17-6.21-.03-.64-1.03-.64-1,0,.07,1.46,0,2.93.03,4.39s.25,2.85.23,4.3c0,.37-.02.75,0,1.12,0,.21.08.46.04.66-.11.56-.99.76-1.46.88-1.19.33-2.43.44-3.65.31-1.41-.15-2.8-.6-4.07-1.23-.29-.14-.86-.34-1.09-.58l-.05-.03c.14.14.2.13.17-.03.07-.12.01-.49.02-.62l.04-1.25.14-4.49.06-2.12c0-.31-.03-.69.08-.99.16-.41.63-.51,1.01-.62,1.5-.47,3.06-.78,4.63-.92.81-.07,1.62-.1,2.43-.08.34,0,.73,0,1.03.19.37.24.39.71.41,1.11.04.64,1.04.64,1,0Z"/>
  <path class="cls-1" d="M91.43,77.16c3.18,1.67,7.1,1.04,9.58-1.58.44-.47-.26-1.18-.71-.71-2.16,2.28-5.57,2.88-8.36,1.42-.57-.3-1.08.56-.5.86h0Z"/>
  <path class="cls-1" d="M149.76,101.2c0-.44-.05-.89-.09-1.33-.07-.68-.14-1.36-.22-2.04-.06-.59-.13-1.17-.19-1.76-.07-.7-.06-1.52-.86-1.78-.48-.16-1.08-.1-1.58-.07-.57.04-1.14.11-1.7.23s-1.11.23-1.6.47-.66.7-.69,1.23c-.05,1.2-.07,2.4-.1,3.59l-.02.83c0,.34-.07.65.23.88.08.06.16.1.24.15,1.66.92,3.65.84,5.27-.15.55-.33.05-1.2-.5-.86-1.37.83-3.19.93-4.5,0l.25.43.13-4.56c0-.23-.07-.57.17-.68.32-.14.69-.22,1.03-.3.71-.17,1.43-.27,2.16-.29.25,0,.65-.08.88.03.18.08.15.33.16.5.02.26.05.52.07.78.09.84.19,1.67.27,2.51.08.72.2,1.45.18,2.18-.01.64.99.64,1,0h0Z"/>
  <path class="cls-1" d="M143.19,96.89c1.72.93,3.86.58,5.18-.87.43-.48-.27-1.18-.71-.71-1.02,1.11-2.62,1.44-3.96.71-.57-.31-1.07.56-.5.86h0Z"/>
  <path class="cls-1" d="M160.96,112.38c.07-.69.02-1.4,0-2.09-.03-1.03-.07-2.06-.12-3.09-.03-.83-.08-1.65-.09-2.48,0-.45.03-.9-.15-1.32-.28-.64-.93-.84-1.57-.92-1.71-.21-3.45-.14-5.15.1-.67.1-1.52.15-2.09.55-.62.44-.6,1.28-.68,1.96l-.62,5.41c-.06.48-.24.99.21,1.31.17.12.36.23.55.34,2.44,1.35,5.29,1.4,7.82.27.59-.26.08-1.12-.5-.86-2.33,1.04-5.33.93-7.42-.64l.25.43c.25-2.21.5-4.42.76-6.63.06-.52.08-.79.62-.92s1.07-.21,1.6-.28c1.08-.14,2.17-.18,3.26-.14.49.02.99.03,1.47.12.58.1.66.4.66.94,0,.35,0,.69.02,1.04.04,1.22.1,2.44.15,3.66.04,1.07.15,2.18.04,3.25-.07.64.93.63,1,0h0Z"/>
  <path class="cls-1" d="M151.56,105.33c2.5,1.48,5.7,1.25,7.92-.61.49-.41-.22-1.12-.71-.71-1.88,1.57-4.63,1.69-6.71.46-.56-.33-1.06.54-.5.86h0Z"/>
  <path class="cls-1" d="M172.96,105.38c.07-.69.02-1.4,0-2.09-.03-1.03-.07-2.06-.12-3.09-.03-.83-.08-1.65-.09-2.48,0-.45.03-.9-.15-1.32-.28-.64-.93-.84-1.57-.92-1.71-.21-3.45-.14-5.15.1-.67.1-1.52.15-2.09.55-.62.44-.6,1.28-.68,1.96l-.62,5.41c-.06.48-.24.99.21,1.31.17.12.36.23.55.34,2.44,1.35,5.29,1.4,7.82.27.59-.26.08-1.12-.5-.86-2.33,1.04-5.33.93-7.42-.64l.25.43c.25-2.21.5-4.42.76-6.63.06-.52.08-.79.62-.92s1.07-.21,1.6-.28c1.08-.14,2.17-.18,3.26-.14.49.02.99.03,1.47.12.58.1.66.4.66.94,0,.35,0,.69.02,1.04.04,1.22.1,2.44.15,3.66.04,1.07.15,2.18.04,3.25-.07.64.93.63,1,0h0Z"/>
  <path class="cls-1" d="M163.56,98.33c2.5,1.48,5.7,1.25,7.92-.61.49-.41-.22-1.12-.71-.71-1.88,1.57-4.63,1.69-6.71.46-.56-.33-1.06.54-.5.86h0Z"/>
  <path class="cls-1" d="M128.71,105.45c-.92,0-1.84,0-2.76.01-.25,0-.84.11-1.02-.12s-.09-.86-.08-1.13c.07-1.54.96-2.67,2.42-3.17.79-.27,1.61-.35,2.44-.37.71-.02,1.65-.13,2.27.29.55.37.64,1.12.68,1.73.06.89.09,1.79.14,2.68l.37-.48c-1.4.25-2.81.44-4.23.58-.63.06-.64,1.06,0,1,1.5-.15,3-.36,4.49-.62.2-.04.38-.28.37-.48-.04-.87-.08-1.75-.14-2.62-.04-.66-.12-1.35-.47-1.92-.82-1.36-2.68-1.22-4.06-1.13-1.48.1-2.99.48-4.08,1.54s-1.39,2.71-1.13,4.17c.16.89.89,1.06,1.68,1.06,1.04,0,2.07-.01,3.11-.02.64,0,.64-1,0-1h0Z"/>
  <path class="cls-1" d="M126.17,106.49c.21,1.39.78,2.73,1.63,3.85.24.32.62.32.86,0,.91-1.2,1.57-2.59,1.94-4.05.16-.62-.8-.89-.96-.27-.35,1.38-.98,2.67-1.84,3.81h.86c-.81-1.06-1.33-2.29-1.52-3.61-.04-.27-.38-.41-.62-.35-.29.08-.39.35-.35.62h0Z"/>
  <path class="cls-1" d="M109.97,5.78c-1.56-.87-3.11-1.74-4.67-2.61-1.46-.82-2.91-1.72-4.45-2.4-1.45-.64-2.93-.93-4.5-.7s-3.01.85-4.41,1.52c-3.13,1.49-6.26,2.85-9.55,3.95-3.26,1.09-6.57,2.04-9.88,2.95-12.94,3.57-26.14,6.4-38.62,11.43-2.95,1.19-5.92,2.44-8.69,4-2.53,1.42-4.74,3.23-6.19,5.77-2.92,5.13-3.67,11.17-4.53,16.91-1.03,6.85-2.31,13.66-3.47,20.49-1.2,7.07-2.58,14.06-4.36,21.01-1.77,6.91-3.75,13.78-5.5,20.7-.4,1.59-.98,3.25-1.13,4.88-.13,1.52.85,2.34,2.05,3.05,2.87,1.69,5.86,3.18,8.93,4.47,1.55.65,3.12,1.24,4.72,1.79.25.08.56-.1.62-.35.55-2.42,1.1-4.84,1.65-7.26,1.35-5.94,2.7-11.89,4.04-17.83,1.7-7.5,3.4-15,5.11-22.49,1.61-7.08,3.22-14.16,4.84-21.24,1.07-4.68,2.13-9.36,3.22-14.04.33-1.41.56-2.98,1.27-4.25,1.44-2.6,4.41-3.29,7.01-4.23,4.35-1.57,8.69-3.19,13.03-4.8,6.97-2.58,13.93-5.16,20.89-7.74,6.8-2.52,13.6-5.05,20.4-7.58,3.84-1.43,7.69-2.86,11.53-4.29.18-.07.37-.14.55-.21.6-.22.34-1.19-.27-.96-2.76,1.03-5.52,2.05-8.29,3.08-6.4,2.38-12.8,4.76-19.2,7.14-7.17,2.66-14.34,5.32-21.51,7.98-5.2,1.93-10.4,3.86-15.61,5.76-1.2.44-2.39.87-3.6,1.28-2.25.77-4.47,1.78-5.73,3.91-.52.88-.8,1.84-1.03,2.83-.89,3.77-1.74,7.55-2.61,11.33-1.53,6.68-3.05,13.36-4.57,20.04-1.73,7.6-3.45,15.2-5.18,22.79-1.49,6.55-2.97,13.09-4.46,19.64-.79,3.46-1.57,6.93-2.36,10.39-.04.16-.07.32-.11.48l.62-.35c-3.14-1.07-6.21-2.35-9.18-3.85-1.47-.74-2.91-1.53-4.33-2.36-.59-.35-1.29-.73-1.44-1.47-.16-.79.19-1.7.38-2.46,1.63-6.73,3.53-13.4,5.31-20.09s3.36-13.43,4.54-20.27,2.36-14,3.59-21c.98-5.59,1.43-11.34,3.37-16.71.98-2.71,2.33-5.25,4.59-7.1,2.32-1.9,5.17-3.15,7.89-4.36,11.97-5.33,24.8-8.3,37.42-11.64,6.34-1.68,12.75-3.34,18.85-5.77,1.55-.62,3.07-1.31,4.58-2.05,1.41-.69,2.83-1.39,4.38-1.73,3.38-.74,6.29,1.43,9.1,2.99,1.49.83,2.97,1.66,4.46,2.49.56.31,1.07-.55.5-.86Z"/>
  <path class="cls-1" d="M23.1,26.46c4.37,2.25,8.69,4.59,12.96,7.03.56.32,1.06-.54.5-.86-4.27-2.44-8.59-4.78-12.96-7.03-.57-.29-1.08.57-.5.86h0Z"/>
  <path class="cls-1" d="M109.33,6.66c-.61,4.59-1.44,9.16-2.49,13.67s-2.24,8.87-2.91,13.41c-.33,2.23-.6,4.46-1.09,6.66s-1.2,4.23-1.92,6.31c-.75,2.14-1.43,4.29-2.01,6.48s-1.02,4.42-1.6,6.61c-1.29,4.83-3.38,9.4-4.52,14.27-.15.63.82.89.96.27,1.02-4.34,2.78-8.45,4.07-12.7.67-2.19,1.12-4.44,1.67-6.67s1.16-4.39,1.89-6.54,1.51-4.22,2.09-6.38.9-4.4,1.22-6.63c.65-4.57,1.72-9.02,2.8-13.51,1.21-5.03,2.16-10.11,2.84-15.24.08-.64-.92-.63-1,0h0Z"/>
  <path class="cls-1" d="M91.16,75.62c-3.87-1.38-7.5-3.34-10.79-5.79-.14-.1-.36-.08-.5,0-2.01,1.16-4.01,2.32-6.02,3.48-4.8,2.77-9.6,5.54-14.4,8.31-5.82,3.36-11.64,6.72-17.46,10.08-5.01,2.89-10.03,5.79-15.04,8.68l-4.93,2.85c-.79.45-1.61.87-2.37,1.37-.03.02-.07.04-.1.06-.56.32-.05,1.19.5.86,2.01-1.16,4.01-2.32,6.02-3.48,4.8-2.77,9.6-5.54,14.4-8.31,5.82-3.36,11.64-6.72,17.46-10.08,5.01-2.89,10.03-5.79,15.04-8.68,1.64-.95,3.29-1.9,4.93-2.85l1.56-.9c.26-.15.58-.28.81-.47.03-.02.07-.04.1-.06h-.5c3.36,2.5,7.08,4.48,11.03,5.89.61.22.87-.75.27-.96h0Z"/>
  <path class="cls-1" d="M80.23,70.58c.56-3.77,2.11-7.34,3.25-10.96,1.15-3.67,2.15-7.38,3.05-11.13,1.77-7.42,3.09-14.94,4.26-22.48.65-4.24,1.26-8.49,1.86-12.75.09-.63-.87-.9-.96-.27-2.15,15.16-4.32,30.41-8.78,45.1-.62,2.05-1.3,4.07-1.99,6.09s-1.33,4.02-1.64,6.12c-.09.63.87.9.96.27h0Z"/>
  <path class="cls-1" d="M98.95,150.33c-11.1-3.23-22.22-6.41-33.31-9.7-10.68-3.17-21.32-6.5-31.76-10.4-6-2.24-11.93-4.67-17.74-7.36-.32-.15-.78.02-.75.43.26,4.3.28,8.61.02,12.92-.13,2.15-.32,4.3-.58,6.44-.13,1.08-.28,2.16-.45,3.24-.13.87-.28,1.76-.16,2.65.22,1.6,1.33,2.62,2.75,3.25,1.73.77,3.62,1.24,5.43,1.8,4.11,1.29,8.24,2.53,12.38,3.75,16.43,4.83,33,9.21,49.38,14.22,4,1.22,7.97,2.52,11.91,3.93,3.78,1.35,7.66,2.64,11.68,2.92,2.03.14,4.07,0,6.05-.42,1.68-.35,3-1.1,4.26-2.25,2.89-2.61,5.84-5.06,9.05-7.29,6.59-4.56,13.71-8.23,20.44-12.57,3.45-2.22,6.81-4.59,10.06-7.09s6.19-5.13,9.25-7.75,6.54-4.91,10.1-7.02c3.25-1.92,6.77-3.75,9.5-6.4,2.65-2.58,3.58-5.88,3.47-9.51-.12-3.99-.6-8.02-1.08-11.97-.25-2.05-.55-4.1-.87-6.15-.05-.33-.48-.44-.73-.3-12.34,6.94-24.22,14.64-35.69,22.93-5.83,4.22-11.62,8.49-17.43,12.74-5.65,4.13-11.28,8.23-16.55,12.84-1.25,1.09-2.5,2.18-3.76,3.25-1.27,1.09-2.61,2.11-4.37,1.8-1.6-.28-3.16-.91-4.73-1.32-1.93-.5-3.85-1.06-5.76-1.62-.62-.18-.88.78-.27.96,3.18.93,6.38,1.86,9.57,2.73,1.19.32,2.38.49,3.54,0s2.23-1.42,3.21-2.28c2.52-2.22,5.04-4.46,7.66-6.57,2.8-2.27,5.73-4.38,8.63-6.51,11.79-8.63,23.45-17.48,35.68-25.5,6.78-4.44,13.7-8.65,20.77-12.61l-.73-.3c.67,4.18,1.18,8.38,1.53,12.6.29,3.59,1.04,7.59-.54,11-1.58,3.42-5.17,5.48-8.26,7.36-3.29,2-6.69,3.84-9.81,6.11-3.13,2.27-5.92,4.97-8.89,7.45-3.11,2.6-6.34,5.05-9.67,7.36-6.4,4.44-13.25,8.1-19.84,12.23-3.21,2.01-6.35,4.14-9.34,6.48-1.47,1.15-2.88,2.35-4.23,3.63s-2.59,2.16-4.4,2.53c-8.13,1.69-15.73-2.21-23.27-4.61-15.83-5.05-31.9-9.33-47.87-13.91-7.98-2.29-15.98-4.57-23.86-7.19-1.75-.58-3.35-1.41-3.36-3.49,0-1.92.51-3.92.73-5.84.48-4.17.71-8.36.69-12.56-.01-2.04-.08-4.08-.21-6.12l-.75.43c10.15,4.69,20.63,8.61,31.24,12.11,10.77,3.56,21.68,6.7,32.57,9.87,6.41,1.86,12.82,3.73,19.23,5.59.62.18.88-.78.27-.96Z"/>
  <path class="cls-1" d="M111.02,177.39v-22.87c0-.64-1-.64-1,0v22.87c0,.64,1,.64,1,0h0Z"/>
  <path class="cls-1" d="M137.32,141.38c.73,1.63,1.45,3.25,2.18,4.88.53,1.18,1.05,2.37,1.86,3.38s1.88,1.75,3.18,1.89c1.47.16,2.9-.43,4.11-1.23,1.33-.88,2.54-1.96,3.79-2.95,1.37-1.08,2.75-2.15,4.15-3.21,2.73-2.07,5.49-4.09,8.29-6.05,1.35-.95,2.72-1.87,4.08-2.81,1.17-.81,2.34-1.74,2.8-3.14.49-1.52-.29-2.7-1.05-3.96-.91-1.51-1.83-3.02-2.78-4.52-.64-1-1.46-2.04-2.77-1.93-1.08.09-2.57.83-3.15,1.77-.77,1.26.42,2.52,1.02,3.58.38.67.73,1.35,1.06,2.04.36.75.89,1.64,1.05,2.46.1.53-.43.76-.81,1-.41.27-.83.54-1.24.81-.83.54-1.65,1.09-2.48,1.63-1.65,1.09-3.31,2.17-4.96,3.26-3.34,2.19-6.69,4.39-10.03,6.58l.68.18c-1.4-2.02-1.9-4.56-3.53-6.43-.76-.86-1.94-1.79-3.15-1.35-1.22.45-2.23,1.63-2.9,2.71-.34.55.53,1.05.86.5.31-.5.67-.96,1.09-1.36.38-.37.97-.93,1.54-.97,1.01-.07,2,1.29,2.46,2.03,1.07,1.72,1.6,3.71,2.76,5.38.15.21.44.34.68.18,5.45-3.57,10.89-7.15,16.34-10.72.66-.43,1.31-.86,1.97-1.29.53-.35,1.23-.69,1.57-1.25.28-.46.2-.94.03-1.42-.27-.72-.58-1.43-.91-2.13-.63-1.36-1.4-2.61-2.13-3.91-.37-.65-.17-1.1.42-1.51.54-.37,1.32-.8,1.98-.79.63,0,1.07.53,1.4,1,.45.63.84,1.32,1.25,1.98.82,1.33,1.66,2.65,2.44,4,.41.7.6,1.37.34,2.17-.23.7-.72,1.26-1.26,1.74-1.12.98-2.47,1.75-3.69,2.6-5.11,3.53-10.1,7.24-14.96,11.11-2.27,1.8-5.69,4.95-8.42,2.09-.95-.99-1.5-2.3-2.05-3.54-.74-1.66-1.48-3.33-2.23-4.99-.26-.59-1.12-.08-.86.5h0Z"/>
  <path class="cls-1" d="M89.98,113.23c0-.66-.01-1.32,0-1.97,0-.29,0-.59.04-.89,0,.09,0-.05.01-.07.01-.07.03-.13.05-.19-.03.08.03-.05.04-.06-.03.04-.03.03.01-.01.07-.06.05-.05-.07.03h-.27c-.12-.09-.15-.09-.08-.02-.02-.03,0-.02.03.03.03.05.06.09.09.14.07.12.09.16.13.3.07.22.13.52.15.69.08.62.13,1.24.17,1.86.02.27.22.5.5.5.26,0,.52-.23.5-.5-.04-.58-.08-1.16-.15-1.74-.06-.55-.15-1.09-.42-1.58-.13-.24-.33-.55-.61-.63-.36-.11-.67.15-.85.43-.29.45-.26,1.05-.28,1.57-.02.71-.01,1.41,0,2.12,0,.27.23.5.5.5s.5-.23.5-.5h0Z"/>
  <path class="cls-1" d="M88.96,111.22c-1.01-.19-2.05.75-2.34,1.67-.31,1.01.59,1.69,1.47,1.86,1.01.2,2.07.14,3.05-.17.47-.15.93-.36,1.35-.62.39-.24.79-.54.89-1.01.28-1.32-1.56-1.79-2.52-1.67-.27.03-.5.21-.5.5,0,.25.23.53.5.5.42-.05.88-.02,1.26.18.28.15.36.29.1.49-.64.49-1.5.78-2.3.88-.43.05-.88.06-1.31,0-.3-.04-.68-.1-.92-.3s-.08-.48.08-.69c.18-.24.57-.72.92-.65.63.12.9-.84.27-.96h0Z"/>
  <path class="cls-1" d="M92.53,112.35c-.2-.3-.61-.44-.94-.53-.43-.11-.77.35-.56.73.06.11-.09.28-.21.38-.2.16-.44.28-.66.39-.23.12-.44.15-.69.11-.05,0-.09-.02-.14-.03.12-.32.11-.72.09-1.03-.01-.27-.22-.5-.5-.5-.13,0-.26.06-.36.15-.2-.04-.43.02-.53.23-.05.11-.17.16-.3.27-.15.13-.28.31-.33.51-.11.44.18.82.59.92.07.11.16.21.31.26.24.08.51.11.76.16.33.06.64.11.98.04.51-.1,1.08-.44,1.47-.77.05-.04.09-.1.13-.15.03.03.05.06.08.08.26.15.52.04.68-.18.23-.3.33-.7.11-1.04Z"/>
  <path class="cls-1" d="M102.13,80.68c4.64.86,9.19,2.06,13.72,3.38,2.44.71,5.01,1.29,7.32,2.39,1.95.93,3.73,2.33,4.28,4.52.35,1.4.35,2.9.43,4.33.09,1.58.17,3.15.24,4.73.03.64,1.03.64,1,0-.13-2.78-.13-5.62-.53-8.37-.33-2.3-1.58-4.05-3.51-5.3-2.12-1.36-4.62-1.99-7.01-2.69-2.4-.7-4.8-1.41-7.21-2.05-2.8-.74-5.62-1.38-8.47-1.9-.63-.12-.9.85-.27.96h0Z"/>
  <path class="cls-1" d="M188.08,100.08c-.55-1.79-2.08-2.92-3.78-3.54-2.12-.77-4.48-1.03-6.69-1.47-4.56-.9-9.12-1.83-13.68-2.75-8.94-1.8-17.88-3.57-26.86-5.13-5.21-.9-10.44-1.73-15.68-2.47-.63-.09-.9.87-.27.96,8.97,1.27,17.9,2.81,26.81,4.5,8.75,1.66,17.47,3.46,26.21,5.21,2.53.51,5.06.99,7.59,1.5,2.1.43,4.67,1.14,5.38,3.45.19.61,1.16.35.96-.27h0Z"/>
  <path class="cls-1" d="M106.38,116.06c-4.14,3.93-10.26,3.95-15.61,4.13-2.92.1-5.86.16-8.77-.12-2.53-.24-5.36-.72-7.19-2.66-1.71-1.81-1.89-4.35-.2-6.22s4.01-2.67,6.27-3.3c2.68-.75,5.45-1.08,8.23-1.23,2.62-.14,5.26-.19,7.88-.06s5.57.59,7.88,2.15c2.29,1.54,4.06,4.63,2.24,7.21-.37.53.5,1.03.86.5,1.58-2.24.86-5.15-.86-7.08-1.77-2-4.41-3.02-6.99-3.45-2.76-.47-5.59-.42-8.38-.36-3.06.06-6.14.26-9.14.88-2.64.54-5.43,1.36-7.6,3.03-1.89,1.46-3.14,3.72-2.4,6.14.79,2.59,3.2,4.16,5.7,4.85,2.98.82,6.22.84,9.29.81,3.62-.04,7.34-.06,10.93-.64,3.14-.51,6.22-1.65,8.56-3.86.47-.44-.24-1.15-.71-.71h0Z"/>
  <path class="cls-1" d="M133.14,104.31c2.76,2.42,5.05,5.51,5.95,9.12s.35,7.37-1.81,10.33c-.38.52.49,1.02.86.5,2.27-3.11,2.82-7.2,1.95-10.91-.9-3.85-3.32-7.18-6.26-9.75-.48-.42-1.19.28-.71.71h0Z"/>
  <path class="cls-1" d="M135.11,124.21c-9.9,9.51-24.27,10.97-37.32,11.51-7.29.3-14.59.6-21.88.44-3.7-.08-7.4-.29-11.07-.71-3.21-.36-6.43-.9-9.51-1.9-5.69-1.84-11.1-5.66-12.97-11.59-.82-2.6-.78-5.37.17-7.93s2.64-4.59,4.61-6.32c4.44-3.91,10.19-6.05,15.81-7.64,6.63-1.88,13.48-2.86,20.34-3.36,6.8-.5,13.65-.59,20.47-.49s13.06.52,19.26,2.54c1.51.49,2.98,1.09,4.41,1.79.58.28,1.08-.58.5-.86-6-2.96-12.71-3.97-19.33-4.32-6.99-.37-14.05-.24-21.04.09-7.01.33-14.03,1.05-20.88,2.63-6.13,1.41-12.47,3.36-17.71,6.96-4.37,3-8.11,7.45-8.2,13-.1,5.98,4.03,11.27,9.01,14.16,5.88,3.41,12.96,4.2,19.62,4.67,7.6.54,15.22.33,22.83.06,13.61-.49,28.47-.73,40-9.01,1.27-.91,2.48-1.91,3.61-3,.46-.45-.24-1.15-.71-.71h0Z"/>
</svg>