<?xml version="1.0" encoding="UTF-8"?>
<svg id="photo_illustration" data-name="photo/illustration" xmlns="http://www.w3.org/2000/svg" viewBox="0 0 228.54 163.85">
  <defs>
    <style>
      .cls-1 {
        fill: #fbf6f2;
        stroke-width: 0px;
      }

      .cls-2 {
        fill: none;
        stroke: #fbf6f2;
        stroke-miterlimit: 10;
      }
    </style>
  </defs>
  <path class="cls-1" d="M103.65,129.06c0-8.74,0-17.47,0-26.21v-40.94c0-.64-1-.64-1,0,0,8.74,0,17.47,0,26.21v40.94c0,.64,1,.64,1,0h0Z"/>
  <line class="cls-2" x1="135.76" y1="132.34" x2="134.76" y2="92.34"/>
  <line class="cls-2" x1="145.76" y1="131.34" x2="143.76" y2="91.34"/>
  <line class="cls-2" x1="114.76" y1="57.34" x2="115.33" y2="95.48"/>
  <polygon class="cls-2" points="40.76 120.34 42.76 95.34 68.76 96.34 68.27 120.34 40.76 120.34"/>
  <polygon class="cls-2" points="37.76 87.34 74.76 90.34 66.8 85.68 44.76 83.34 37.76 87.34"/>
  <path class="cls-2" d="M42.1,103.58l26.49.77-26.49-.77Z"/>
  <line class="cls-2" x1="48.45" y1="95.56" x2="46.46" y2="120.34"/>
  <line class="cls-2" x1="54.45" y1="95.56" x2="52.46" y2="120.34"/>
  <line class="cls-2" x1="59.18" y1="95.54" x2="57.73" y2="120.36"/>
  <line class="cls-2" x1="63.79" y1="95.81" x2="63.12" y2="120.38"/>
  <path class="cls-1" d="M14.33,47.91c-.96,11.18-2.08,22.35-3.34,33.51s-2.68,22.28-4.24,33.4c-.88,6.25-1.81,12.5-2.78,18.74-.1.63.87.9.96.27,1.73-11.09,3.32-22.21,4.75-33.35,1.44-11.17,2.73-22.37,3.87-33.58.64-6.32,1.23-12.65,1.78-18.98.06-.64-.95-.64-1,0h0Z"/>
  <path class="cls-1" d="M3.74,134.31c10.35-.71,20.67-1.72,30.96-3,.63-.08.64-1.08,0-1-10.29,1.29-20.62,2.29-30.96,3-.64.04-.64,1.04,0,1h0Z"/>
  <path class="cls-1" d="M35.08,130.95c-.34-11,.11-22.02,1.38-32.94.36-3.14.8-6.26,1.29-9.38.1-.63-.86-.9-.96-.27-1.74,10.95-2.69,22.02-2.81,33.11-.03,3.16,0,6.32.1,9.48.02.64,1.02.64,1,0h0Z"/>
  <path class="cls-1" d="M74.44,132.29c.3-10.96.59-21.92.89-32.87l.25-9.21c.02-.64-.98-.64-1,0-.3,10.96-.59,21.92-.89,32.87l-.25,9.21c-.02.64.98.64,1,0h0Z"/>
  <path class="cls-1" d="M15.25,47.09l-2.18-1.77c-.3-.24-.78-.48-.79-.91s.12-.89.18-1.31c.05-.33.01-.98.18-1.26.11-.19-.19-.11.24-.1.24,0,.48-.02.72-.03.88-.03,1.76-.03,2.64-.01,3.64.08,7.27.55,10.82,1.38.63.15.89-.82.27-.96-4.18-.98-8.47-1.48-12.76-1.43-.56,0-1.12.01-1.68.05-.32.02-.67.02-.92.25-.29.26-.3.7-.35,1.05-.08.54-.15,1.07-.23,1.61-.12.84-.19,1.42.5,2,.86.74,1.77,1.44,2.65,2.15.5.4,1.21-.3.71-.71h0Z"/>
  <path class="cls-1" d="M27.69,42.86c8.59-4.2,15.79-10.62,23.93-15.55,2.31-1.4,4.7-2.67,7.18-3.72.58-.25.33-1.21-.27-.96-8.91,3.75-16.25,10.13-24.29,15.33-2.28,1.48-4.63,2.85-7.07,4.04-.58.28-.07,1.15.5.86h0Z"/>
  <path class="cls-1" d="M58.08,23.7c6.57,7.84,13.07,15.77,19.09,24.05,1.7,2.34,3.37,4.71,4.98,7.12.36.53,1.22.03.86-.5-5.74-8.53-12.07-16.64-18.6-24.59-1.86-2.27-3.74-4.53-5.63-6.78-.41-.49-1.12.22-.71.71h0Z"/>
  <path class="cls-1" d="M82.93,54.92c3.26.24,6.49.79,9.65,1.63.62.17.89-.8.27-.96-3.24-.86-6.56-1.42-9.91-1.67-.64-.05-.64.95,0,1h0Z"/>
  <path class="cls-1" d="M93.14,56.15v4.4c0,.64,1,.64,1,0v-4.4c0-.64-1-.64-1,0h0Z"/>
  <path class="cls-1" d="M93.35,60.25l-1.83,1.27c-.11.08-.19.17-.23.3-.03.12-.02.28.05.39.14.21.45.34.68.18l1.83-1.27c.11-.08.19-.17.23-.3.03-.12.02-.28-.05-.39-.14-.21-.45-.34-.68-.18h0Z"/>
  <path class="cls-1" d="M91.11,62.03c.83,8.65.89,17.35.55,26.02-.34,8.66-1.05,17.3-1.73,25.95-.39,4.9-.76,9.8-1.06,14.7-.04.64.96.64,1,0,.52-8.7,1.31-17.38,1.94-26.07.63-8.63,1.12-17.28,1.04-25.93-.04-4.9-.27-9.79-.74-14.67-.06-.63-1.06-.64-1,0h0Z"/>
  <path class="cls-1" d="M103.02,129.36c4.52.9,9.05,1.79,13.63,2.31,2.23.25,4.47.37,6.72.45,2.27.08,4.54.21,6.73.9.61.19.88-.77.27-.96-2.11-.67-4.32-.84-6.53-.92s-4.47-.18-6.7-.41c-4.66-.5-9.26-1.42-13.85-2.33-.63-.12-.9.84-.27.96h0Z"/>
  <path class="cls-1" d="M103.14,128.2c-7.56,2.03-15.37,2.76-23.15,3.33-7.99.58-15.99.91-23.99,1.15-4.54.14-9.08.24-13.62.35-.64.02-.64,1.02,0,1,8.09-.19,16.18-.38,24.26-.74,7.98-.35,16-.78,23.93-1.74,4.32-.52,8.62-1.26,12.83-2.39.62-.17.36-1.13-.27-.96h0Z"/>
  <path class="cls-1" d="M25.27,70.49l.49-5.94.24-2.97.06-.74c.01-.14,0-.63.06-.74.12-.19.2-.14.46-.14.24,0,.48,0,.72,0,1.93,0,3.85.11,5.77.32.95.1,1.9.24,2.85.39.47.08.95.16,1.42.26.39.07,1.09.1,1.41.33l-.23-.3c.14.36,0,.97-.03,1.35-.03.48-.06.97-.1,1.45-.07.93-.15,1.86-.24,2.78-.19,1.93-.44,3.85-.73,5.77l.48-.37c-4.32-.49-8.64-1.07-12.94-1.73-.63-.1-.9.87-.27.96,4.39.68,8.79,1.27,13.2,1.77.2.02.45-.17.48-.37.39-2.52.7-5.06.92-7.61.11-1.28.28-2.6.26-3.88,0-.39-.16-.68-.53-.83-.57-.23-1.29-.28-1.9-.4-2.49-.46-5.01-.75-7.54-.86-.6-.03-1.2-.04-1.8-.05s-1.24-.08-1.82.04c-1.08.23-.89,1.62-.96,2.46-.25,3.01-.49,6.02-.74,9.03-.05.64.95.64,1,0h0Z"/>
  <path class="cls-1" d="M31.57,71.2c.3-4,1.41-7.9,1.44-11.92,0-.64-1-.64-1,0-.02,4.02-1.14,7.92-1.44,11.92-.05.64.95.64,1,0h0Z"/>
  <path class="cls-1" d="M74.16,76.3c-.1-3.31.09-6.62.6-9.89l-.48.37c1.93-.12,3.87-.24,5.81-.18.99.03,1.99.1,2.97.26.48.07.95.17,1.42.28.2.05.34.04.4.19.07.17-.05.6-.07.79-.2,2.04-.46,4.07-.8,6.09-.08.5-.17.99-.26,1.49-.04.23-.08.46-.13.69-.02.09-.02.26-.07.34-.11.18,0,.11-.23.15-.42.08-.94.02-1.37.02-.53,0-1.07-.02-1.6-.04-2.28-.1-4.54-.41-6.77-.91-.63-.14-.89.82-.27.96,2.28.5,4.6.82,6.93.94,1.1.05,2.26.13,3.35.01s1.02-1.32,1.17-2.13c.42-2.33.75-4.68,1-7.04.08-.81.45-2.05-.56-2.4s-2.08-.45-3.1-.56c-2.6-.27-5.21-.11-7.81.05-.2.01-.45.14-.48.37-.52,3.36-.74,6.76-.64,10.16.02.64,1.02.64,1,0h0Z"/>
  <path class="cls-1" d="M79.22,76.9c-.41-3.63.55-7.2.67-10.81.02-.64-.98-.64-1,0-.12,3.61-1.08,7.19-.67,10.81.07.63,1.07.64,1,0h0Z"/>
  <path class="cls-1" d="M43,72.99c.35-6.24.93-12.46,1.74-18.66l-.5.5c5.39-.16,10.62,1.26,15.79,2.59,2.59.67,5.19,1.32,7.84,1.76.34.06.68.1,1.02.16.47.07.46.32.47.76.01.73,0,1.46-.04,2.19-.07,1.38-.23,2.75-.39,4.12-.4,3.29-.81,6.58-1.22,9.87l.63-.48c-8.53-1.61-17.14-2.75-25.79-3.44-.64-.05-.64.95,0,1,8.56.68,17.08,1.81,25.52,3.4.35.07.59-.14.63-.48.38-3.09.77-6.18,1.15-9.27.18-1.49.36-2.98.45-4.48.04-.73.07-1.46.06-2.19,0-.56.08-1.3-.41-1.69-.42-.34-1.08-.32-1.59-.4-.75-.12-1.5-.26-2.25-.41-1.35-.27-2.69-.59-4.03-.93-2.82-.71-5.62-1.49-8.47-2.09-3.08-.65-6.22-1.09-9.37-.99-.3,0-.46.22-.5.5-.81,6.2-1.39,12.42-1.74,18.66-.04.64.96.64,1,0h0Z"/>
  <path class="cls-1" d="M48.77,73.2c-.23-6.1.23-12.2,1.39-18.19.12-.63-.84-.9-.96-.27-1.18,6.08-1.66,12.27-1.42,18.45.02.64,1.02.64,1,0h0Z"/>
  <path class="cls-1" d="M43.74,64.02c4.34-.39,8.61.48,12.83,1.39s8.42,1.83,12.63,2.75c.63.14.9-.83.27-.96-4.29-.93-8.58-1.87-12.87-2.8s-8.52-1.76-12.85-1.38c-.64.06-.64,1.06,0,1h0Z"/>
  <path class="cls-1" d="M54.28,73.6c.27-5.92.72-11.83,1.35-17.72.07-.64-.93-.63-1,0-.63,5.89-1.08,11.8-1.35,17.72-.03.64.97.64,1,0h0Z"/>
  <path class="cls-1" d="M59.37,74.61c.16-5.74,1.5-11.38,1.42-17.13,0-.64-1.01-.64-1,0,.08,5.75-1.27,11.39-1.42,17.13-.02.64.98.64,1,0h0Z"/>
  <path class="cls-1" d="M64.33,75.69c.26-5.84.84-11.67,1.73-17.45.1-.63-.87-.9-.96-.27-.9,5.87-1.5,11.78-1.76,17.72-.03.64.97.64,1,0h0Z"/>
  <path class="cls-1" d="M52.12,48.59c0-4.17.14-8.34.45-12.51l-.63.48c1.9.54,3.88.52,5.84.62,1.03.05,2.06.14,3.06.38.45.11.89.24,1.32.39s1.1.32,1.43.63c.29.26.19,1.05.19,1.42,0,.48.01.96,0,1.44-.02,1.04-.07,2.09-.16,3.12-.19,2.12-.55,4.21-1.06,6.27l.73-.3c-1.89-.89-3.92-.54-5.93-.76s-3.74-1.67-5.83-1.62c-.64.02-.64,1.02,0,1,1.92-.05,3.56,1.32,5.45,1.57s4.01-.18,5.81.67c.28.13.65.04.73-.3.55-2.23.92-4.49,1.11-6.78.09-1.12.14-2.24.15-3.37,0-.56,0-1.12-.03-1.68-.02-.42.02-.88-.26-1.23-.53-.66-1.73-.96-2.51-1.2-.99-.31-2.02-.49-3.06-.58-2.25-.2-4.53-.04-6.72-.66-.33-.09-.61.16-.63.48-.3,4.16-.45,8.33-.45,12.51,0,.64,1,.64,1,0h0Z"/>
  <path class="cls-1" d="M57.86,50.29c.04-4.62.31-9.23.81-13.82.07-.64-.93-.63-1,0-.5,4.59-.77,9.2-.81,13.82,0,.64.99.64,1,0h0Z"/>
  <path class="cls-1" d="M103.59,61.78c3.09-1.37,6.18-2.74,9.27-4.1.77-.34,1.52-.62,2.36-.66s1.69.04,2.54.06c1.63.04,3.26.04,4.89,0,3.34-.09,6.64-.44,9.96-.69,1.63-.12,3.25-.11,4.87.13s3.25.65,4.88.99c3.6.75,7.26,1.06,10.92,1.35.27.02.5-.25.5-.5.02-.98.04-1.95.06-2.93,0-.27-.23-.5-.5-.5-3.75.06-7.32-1.19-10.91-2.13-3.77-.98-7.54-1.26-11.42-1.11s-7.87.45-11.81.7c-1.93.12-3.78.36-5.6,1.05s-3.54,1.5-5.3,2.26c-1.07.46-2.13.92-3.2,1.38-.79.34-1.61.67-2.3,1.2-1.2.92-1.82,2.68-.71,3.93.43.48,1.14-.23.71-.71-.47-.53-.33-1.33.05-1.87.46-.65,1.25-1.02,1.95-1.33,1.67-.75,3.35-1.45,5.03-2.18s3.38-1.57,5.16-2.11,3.61-.59,5.44-.7c3.69-.23,7.38-.52,11.07-.64s7.15.17,10.67,1.09,7.33,2.22,11.17,2.17l-.5-.5c-.02.98-.04,1.95-.06,2.93l.5-.5c-3.41-.27-6.83-.55-10.19-1.22s-6.4-1.48-9.75-1.3-6.62.6-9.95.71c-1.71.06-3.42.07-5.13.03-1.55-.03-3.2-.28-4.7.24-1.72.59-3.38,1.46-5.04,2.19l-5.43,2.4c-.59.26-.08,1.12.5.86h0Z"/>
  <path class="cls-1" d="M103.18,59.05c6.93-4.12,13.69-8.51,20.26-13.18,1.87-1.33,3.72-2.68,5.56-4.05.51-.38.01-1.25-.5-.86-6.46,4.82-13.12,9.37-19.95,13.65-1.94,1.22-3.9,2.41-5.87,3.58-.55.33-.05,1.19.5.86h0Z"/>
  <path class="cls-1" d="M128.39,41.93c3.23,2.18,6.46,4.36,9.69,6.55,3.02,2.04,6.04,4.11,8.66,6.67.46.45,1.17-.26.71-.71-2.62-2.57-5.64-4.65-8.67-6.7-3.29-2.23-6.59-4.45-9.88-6.67-.53-.36-1.04.5-.5.86h0Z"/>
  <path class="cls-1" d="M117.52,53.13c4.46-3.29,8.51-7.09,12.06-11.35l-.79-.1c1.82,3.47,3.63,6.95,5.45,10.42.3.57,1.16.07.86-.5-1.82-3.47-3.63-6.95-5.45-10.42-.14-.27-.58-.34-.79-.1-3.49,4.19-7.47,7.96-11.86,11.19-.51.38-.01,1.25.5.86h0Z"/>
  <path class="cls-1" d="M77.54,47.44c2.04.17,4.03.64,6.01,1.16s3.98,1.06,5.97,1.59c4.04,1.08,8.08,2.15,12.11,3.23,2.28.61,4.56,1.22,6.84,1.82.62.17.89-.8.27-.96-8.15-2.17-16.3-4.36-24.45-6.52-2.22-.59-4.45-1.13-6.74-1.32-.64-.05-.64.95,0,1h0Z"/>
  <path class="cls-1" d="M93.83,59.75c3.18-.24,6.65-.46,9.37,1.52.52.38,1.02-.49.5-.86-2.86-2.08-6.53-1.9-9.88-1.65-.64.05-.64,1.05,0,1h0Z"/>
  <path class="cls-1" d="M152.43,58.63c-1.1,10.06-1.03,20.22.19,30.26.08.63,1.08.64,1,0-1.23-10.04-1.29-20.2-.19-30.26.07-.64-.93-.63-1,0h0Z"/>
  <path class="cls-1" d="M133.61,90.27c.2-8.79,1.58-17.51,1.55-26.3,0-2.51-.14-5.02-.44-7.52-.08-.63-1.08-.64-1,0,1.05,8.75-.05,17.53-.71,26.26-.19,2.52-.34,5.03-.4,7.56-.01.64.99.64,1,0h0Z"/>
  <path class="cls-1" d="M137.77,90.44c.42-8.74.45-17.5.07-26.24-.11-2.47-.25-4.95-.42-7.42-.04-.64-1.04-.64-1,0,.6,8.73.81,17.49.61,26.24-.06,2.48-.14,4.95-.26,7.42-.03.64.97.64,1,0h0Z"/>
  <path class="cls-1" d="M115.57,95.7c4.74.12,9.43.13,14-1.27,2.24-.68,4.43-1.45,6.76-1.77,2.39-.33,4.81-.34,7.21-.36.64,0,.64-1,0-1-2.37.02-4.75.04-7.11.34-2.3.3-4.47.99-6.68,1.69-2.3.72-4.62,1.18-7.03,1.34-2.38.16-4.77.1-7.16.03-.64-.02-.64.98,0,1h0Z"/>
  <path class="cls-1" d="M143.67,92.11c3.21-.13,6.36,1.07,9.5,1.6,3.2.54,6.45.8,9.7.76,3.29-.04,6.56-.4,9.85-.32s6.18.78,9.23,1.58c3.28.86,6.63,1.71,10.05,1.38.63-.06.64-1.06,0-1-3.07.3-6.06-.37-9.01-1.14-2.98-.78-5.94-1.59-9.03-1.77-3.29-.19-6.57.14-9.85.25-3.28.11-6.58-.07-9.82-.56-1.83-.28-3.62-.68-5.42-1.1-1.71-.4-3.43-.74-5.19-.67-.64.03-.64,1.03,0,1h0Z"/>
  <path class="cls-1" d="M118.56,64.84c-.2,4.43-.1,8.87.3,13.28.1,1.09.22,2.18.36,3.27.06.49.13.98.2,1.46s.08,1.07.25,1.53c.31.84,1.43.67,2.16.71,1.14.06,2.29.1,3.44.12s2.21.02,3.31,0c.74-.01,1.63.05,1.99-.75.17-.39.16-.87.2-1.29.06-.57.11-1.14.16-1.72.1-1.1.19-2.21.28-3.31.35-4.46.6-8.92.73-13.39.01-.42.06-.91-.25-1.25s-.83-.31-1.26-.26c-1.17.13-2.34.29-3.51.47-2.49.38-4.96.86-7.41,1.44-.63.15-.36,1.11.27.96,1.9-.45,3.8-.84,5.72-1.16.96-.16,1.92-.31,2.89-.45.44-.06.88-.12,1.32-.17.24-.03.48-.06.73-.09.44-.05.47-.07.51.38.09.95-.07,2-.1,2.95s-.09,1.97-.14,2.95c-.1,1.97-.22,3.93-.37,5.89s-.31,3.93-.49,5.89c-.04.41-.07.82-.12,1.22-.02.17,0,.47-.14.6-.11.1-.51.06-.65.06-.98.03-1.96.03-2.95.02-.98,0-1.96-.03-2.95-.07-.49-.02-.98-.04-1.47-.07-.16,0-.33-.02-.49-.03-.16,0-.33-.02-.49-.03.02.08.02.04-.02-.11-.09-.14-.08-.56-.11-.72-.04-.24-.07-.48-.1-.72-.07-.52-.14-1.04-.2-1.56-.12-.97-.22-1.94-.31-2.91-.4-4.37-.49-8.77-.29-13.16.03-.64-.97-.64-1,0h0Z"/>
  <path class="cls-1" d="M125.46,64.84c-.05,6.63-.11,13.26-.16,19.9,0,.64.99.64,1,0,.05-6.63.11-13.26.16-19.9,0-.64-.99-.64-1,0h0Z"/>
  <path class="cls-1" d="M119.66,72.67c3.32.08,6.63.15,9.95.23.64.01.64-.99,0-1-3.32-.08-6.63-.15-9.95-.23-.64-.01-.64.99,0,1h0Z"/>
  <path class="cls-1" d="M141.46,88.94c-.15-4.39-.3-8.79-.16-13.19.07-2.07.22-4.13.14-6.2-.04-.99-.14-1.98-.32-2.96-.19-1.03-.47-2.06-.11-3.09l-.48.37c3.05.14,6.08.49,9.08,1.03l-.37-.48c.22,8.22.43,16.44.65,24.67.02.64,1.02.64,1,0-.22-8.22-.43-16.44-.65-24.67,0-.2-.15-.44-.37-.48-3.09-.56-6.21-.92-9.35-1.06-.23-.01-.41.17-.48.37-.32.91-.22,1.84-.05,2.77.19,1.02.36,2.03.43,3.06.13,2.14-.03,4.28-.11,6.42-.16,4.48,0,8.96.15,13.44.02.64,1.02.64,1,0h0Z"/>
  <path class="cls-1" d="M146.22,88.46c.05-4.13.09-8.25.1-12.38,0-2.01,0-4.02-.11-6.03s-.58-4.03-.16-6c.13-.63-.83-.9-.96-.27-.42,1.96-.03,3.93.1,5.9s.14,4.09.14,6.14c0,4.21-.04,8.42-.1,12.63,0,.64.99.64,1,0h0Z"/>
  <path class="cls-1" d="M141.67,72.84c2.64-.18,5.27.24,7.72,1.24.25.1.55-.11.62-.35.08-.29-.1-.51-.35-.62-2.52-1.03-5.27-1.46-7.98-1.28-.64.04-.64,1.04,0,1h0Z"/>
  <path class="cls-1" d="M141.25,84.86c2.39-.21,4.79-.12,7.16.28.63.11.9-.86.27-.96-2.45-.41-4.94-.53-7.42-.31-.64.05-.64,1.06,0,1h0Z"/>
  <path class="cls-1" d="M115.79,94.64c1.89-.04,3.63-.7,5.4-1.3,1.89-.64,3.78-.93,5.76-1.12,3.98-.37,7.84-1.11,11.75-1.91,2.28-.47,4.57-.84,6.9-.81.64,0,.64-.99,0-1-3.98-.05-7.82,1.06-11.7,1.78-2.03.38-4.07.65-6.13.85-1.91.19-3.83.32-5.67.86-2.09.61-4.1,1.59-6.3,1.64-.64.01-.64,1.01,0,1h0Z"/>
  <path class="cls-1" d="M145.67,89.56c5.99-.31,11.98.21,17.9,1.13,2.95.46,5.88,1.01,8.81,1.6s5.71,1.22,8.61,1.55c1.58.18,3.16.23,4.76.22,1.66,0,3.32,0,4.93.44.62.17.89-.79.27-.96-2.77-.76-5.67-.35-8.51-.56-3.02-.22-5.99-.88-8.95-1.48-5.8-1.19-11.65-2.24-17.56-2.74-3.41-.29-6.83-.37-10.25-.2-.64.03-.64,1.03,0,1h0Z"/>
  <path class="cls-1" d="M147.9,98.41c-.01,2.5.16,4.99.52,7.47.17,1.21.33,2.48.67,3.65.3,1.05,1.27.97,2.17.94.59-.02,1.18-.03,1.77-.05.49-.01,1.24.11,1.66-.19.37-.27.33-.75.34-1.16.02-.68.04-1.36.05-2.04.02-1.25.02-2.49,0-3.74s0-2.5-.13-3.73c-.05-.43-.18-.87-.57-1.11-.46-.28-1.11-.19-1.61-.19-1.48-.02-2.96-.04-4.44-.06-.64,0-.64.99,0,1,1.06.01,2.12.03,3.18.04.49,0,.99.01,1.48.02.21,0,.44-.02.64,0,.3.04.3.17.33.43.2,2.04.14,4.14.13,6.18,0,1.02-.03,2.04-.06,3.06,0,.12-.07.34-.02.45.12.26-.07-.03.12-.02-.22-.01-.45.01-.66.02-.55.02-1.11.03-1.66.05-.45.01-.92.07-1.37.04-.22-.02-.3-.03-.39-.23-.1-.23-.12-.55-.17-.8-.21-1.02-.38-2.05-.53-3.08-.32-2.31-.46-4.65-.45-6.98,0-.64-1-.64-1,0h0Z"/>
  <path class="cls-1" d="M148.96,105.03c1.78-.04,3.55-.03,5.33.04.64.02.64-.98,0-1-1.78-.07-3.55-.08-5.33-.04-.64.02-.64,1.02,0,1h0Z"/>
  <path class="cls-1" d="M171.5,124.85c-.43-8.07-.9-16.14-1.4-24.21l-.5.5c2.72-.08,5.44.08,8.13.51l-.37-.48c-.92,7.73.05,15.49,1.03,23.17.08.63,1.08.64,1,0-.98-7.67-1.96-15.44-1.03-23.17.02-.2-.17-.45-.37-.48-2.78-.45-5.58-.64-8.4-.55-.26,0-.52.22-.5.5.5,8.07.97,16.14,1.4,24.21.03.64,1.03.64,1,0h0Z"/>
  <path class="cls-1" d="M176.1,113.36c.64,0,.64-1,0-1s-.64,1,0,1h0Z"/>
  <path class="cls-1" d="M160.75,109.78c.06-2,0-4.01-.2-6-.05-.48-.1-.96-.17-1.44-.02-.18-.05-.36-.07-.54-.03-.23-.02-.61-.12-.82.03-.22-.02-.26-.16-.13h.2c.25.02.55-.04.81-.04.47,0,.95,0,1.42.03.25.01,1.09-.02,1.21.17.07.11-.03.51-.04.64-.01.24-.03.48-.03.72-.04.96-.04,1.92-.02,2.88.06,1.96.25,3.92.57,5.86l.48-.63c-1.39-.15-2.78-.31-4.17-.46-.64-.07-.63.93,0,1,1.39.15,2.78.31,4.17.46.36.04.53-.35.48-.63-.29-1.78-.47-3.58-.53-5.39-.03-.89-.03-1.78,0-2.67.01-.45.03-.89.06-1.34.02-.32.06-.65-.07-.95-.28-.65-1.12-.59-1.71-.64-.87-.06-1.76-.08-2.63-.02-.73.05-1.15.36-1.05,1.14.11.9.27,1.8.36,2.71.21,2.03.27,4.07.21,6.1-.02.64.98.64,1,0h0Z"/>
  <path class="cls-1" d="M160.18,106.23c1.2-.11,2.4-.07,3.59.13.27.05.54-.07.62-.35.07-.24-.08-.57-.35-.62-1.28-.22-2.57-.28-3.85-.16-.27.02-.5.21-.5.5,0,.25.23.52.5.5h0Z"/>
  <path class="cls-1" d="M184.22,111.25c.15-3.47-.04-6.93-.56-10.36l-.48.63h1.7c.28,0,.57,0,.85,0h.43c-.18-.03-.23.05-.14.23-.05.23.04.6.06.84.02.28.04.56.06.84.04.52.08,1.05.12,1.57.08,1.08.16,2.16.24,3.25.04.56.08,1.12.12,1.68.02.28.04.56.06.84.02.24.11.58.06.81l.35-.35c-.23.05-.56-.03-.8-.05l-.93-.06-1.75-.12c-.64-.04-.64.96,0,1l1.96.13c.56.04,1.23.18,1.78.06.16-.04.32-.19.35-.35.12-.56-.03-1.24-.08-1.81-.05-.63-.09-1.26-.14-1.89-.1-1.33-.2-2.65-.29-3.98-.05-.63-.09-1.26-.14-1.89-.03-.45.06-1.21-.31-1.55s-1-.2-1.44-.2c-.71,0-1.42,0-2.13,0-.36,0-.53.32-.48.63.5,3.34.67,6.72.52,10.1-.03.64.97.64,1,0h0Z"/>
  <path class="cls-1" d="M183.68,106.64c.96-.03,1.92-.02,2.88.04.26.02.51-.24.5-.5-.01-.28-.22-.48-.5-.5-.96-.06-1.92-.07-2.88-.04-.26,0-.51.22-.5.5s.22.51.5.5h0Z"/>
  <path class="cls-1" d="M155,131.03v-4.49c0-.64-1-.64-1,0v4.49c0,.64,1,.64,1,0h0Z"/>
  <path class="cls-1" d="M153.37,125.81c2.41.31,4.77,1,7.22.66.27-.04.41-.38.35-.62-.08-.29-.35-.39-.62-.35-2.33.32-4.66-.4-6.96-.7-.27-.04-.5.26-.5.5,0,.3.23.47.5.5h0Z"/>
  <path class="cls-1" d="M160.33,130.74v-4.35c0-.64-1-.64-1,0v4.35c0,.64,1,.64,1,0h0Z"/>
  <path class="cls-1" d="M188.74,135.82c2.7,3.15,6.45,5.1,10.28,6.52,1.06.39,2.13.75,3.21,1.09.52.17,1.04.33,1.56.49.3.09.6.19.89.28.23.07.57.11.77.25.42.28.24,1.4.25,1.88,0,.58.02,1.16.03,1.74.02,1.25.04,2.49.05,3.74,0,.64,1.01.64,1,0-.02-1.33-.04-2.66-.06-3.99,0-.58-.02-1.16-.03-1.74s.08-1.23-.08-1.77c-.26-.9-1.59-1.05-2.35-1.29-1.16-.36-2.31-.72-3.46-1.11-4.23-1.44-8.42-3.36-11.39-6.81-.42-.49-1.12.22-.71.71h0Z"/>
  <path class="cls-1" d="M205.98,144.09c-2.12.2-4.07,1.04-6,1.89-.25.11-.3.47-.18.68.15.25.44.29.68.18,1.75-.77,3.56-1.57,5.49-1.75.27-.03.5-.21.5-.5,0-.25-.23-.53-.5-.5h0Z"/>
  <path class="cls-1" d="M206.89,149.6c5.96.47,11.25-3.38,17.18-3.04.64.04.64-.96,0-1-5.94-.34-11.24,3.51-17.18,3.04-.64-.05-.64.95,0,1h0Z"/>
  <path class="cls-1" d="M206.37,148.35c4.91-.28,9.57-1.97,14.42-2.62.63-.08.64-1.09,0-1-4.85.65-9.52,2.33-14.42,2.62-.64.04-.64,1.04,0,1h0Z"/>
  <path class="cls-1" d="M205.86,145.29c2.19.11,4.4-.49,6.53-.9,2.28-.44,4.56-.87,6.85-1.31.63-.12.36-1.08-.27-.96-2.2.42-4.4.84-6.6,1.26s-4.33,1.02-6.51.91c-.64-.03-.64.97,0,1h0Z"/>
  <path class="cls-1" d="M203.37,143.49c4.4-.17,8.56-1.92,12.96-2.12.64-.03.64-1.03,0-1-4.4.2-8.56,1.95-12.96,2.12-.64.02-.64,1.02,0,1h0Z"/>
  <path class="cls-1" d="M198.31,142.05c2.58.29,5.15-.67,7.65-1.16,2.63-.52,5.3-.85,7.98-1.02.64-.04.64-1.04,0-1-2.61.16-5.21.48-7.77.96s-5.22,1.51-7.85,1.22c-.64-.07-.63.93,0,1h0Z"/>
  <path class="cls-1" d="M195.09,140.76c2.52.05,5.04-.59,7.5-1.04,2.54-.47,5.09-.93,7.63-1.4.63-.12.36-1.08-.27-.96-2.46.45-4.93.9-7.39,1.35s-4.97,1.1-7.48,1.05c-.64-.01-.64.99,0,1h0Z"/>
  <path class="cls-1" d="M191.89,138.28c5.37.08,10.74-.49,15.97-1.7.63-.15.36-1.11-.27-.96-5.15,1.19-10.42,1.75-15.7,1.67-.64-.01-.64.99,0,1h0Z"/>
  <path class="cls-1" d="M186.95,129.71c.37,1.96,1.19,4.36,3.45,4.76l-.12-.91c-1.63,1.24-3.73,1.34-5.7,1.42l.5.5c-.18-1.48-.37-2.97-.55-4.45-.03-.27-.21-.5-.5-.5-.24,0-.53.23-.5.5.18,1.48.37,2.97.55,4.45.03.26.2.51.5.5,2.13-.08,4.44-.22,6.2-1.56.3-.23.35-.83-.12-.91-1.9-.34-2.44-2.45-2.75-4.06-.12-.63-1.08-.36-.96.27h0Z"/>
  <path class="cls-1" d="M187.2,128.64c-.76.13-1.51.25-2.27.38-.26.04-.43.38-.35.62.09.28.34.4.62.35.76-.13,1.51-.25,2.27-.38.26-.04.43-.38.35-.62-.09-.28-.34-.4-.62-.35h0Z"/>
  <path class="cls-1" d="M185.06,128.93c-1.48.08-3.02.18-4.43-.34-.54-.2-1.09-.53-1.24-1.12s-.07-1.31.18-1.85c.53-1.18,2.06-1.34,3.2-1.28.66.04,1.26.27,1.66.81.36.48.63,1.19.57,1.79s-.57.93-1.02,1.23c-.53.36-1.04.71-1.41,1.24s.5,1.03.86.5.94-.79,1.42-1.15c.6-.45,1.05-.99,1.13-1.76.17-1.61-1.04-3.33-2.64-3.6-1.42-.25-3.35-.03-4.31,1.17-.52.65-.71,1.49-.71,2.31,0,.88.31,1.63,1.03,2.16s1.72.76,2.62.87c1.02.12,2.05.07,3.08.01.64-.04.64-1.04,0-1h0Z"/>
  <path class="cls-1" d="M206.58,127.51c-1,.13-2.08-.38-2.2-1.48s.98-1.78,1.9-2.01,2.4-.42,3.17.32c.6.56,1.12,1.9.35,2.53-.41.34-1,.42-1.5.5-.74.12-1.48.17-2.23.16-.64,0-.64,1,0,1,.84,0,1.67-.06,2.49-.2.66-.11,1.34-.27,1.87-.7,1.17-.96.78-2.76-.07-3.79-.99-1.19-2.74-1.12-4.12-.84s-2.83,1.26-2.87,2.82c-.04,1.7,1.61,2.88,3.21,2.68.27-.03.5-.21.5-.5,0-.24-.23-.53-.5-.5h0Z"/>
  <path class="cls-1" d="M203.81,129.57v3.94c-.01.47-.16,1.08.23,1.42.49.41,1.15.71,1.7,1.04,2.26,1.39,4.51,2.78,6.77,4.16,1.04.64,2.09,1.26,3.2,1.77s2.23.85,3.37,1.22c2.3.75,4.4,1.83,6.25,3.41.49.42,1.2-.29.71-.71-1.44-1.23-3.04-2.24-4.78-2.97-1.86-.78-3.85-1.2-5.65-2.11s-3.56-2.08-5.31-3.15c-1.91-1.18-3.83-2.35-5.74-3.53l.25.43v-4.93c.01-.64-.99-.64-.99,0h0Z"/>
  <path class="cls-1" d="M213.74,128.33c0,1.38.04,2.76.14,4.14.02.27.22.5.5.5.26,0,.52-.23.5-.5-.1-1.38-.14-2.76-.14-4.14,0-.64-1-.64-1,0h0Z"/>
  <path class="cls-1" d="M214.02,133.04c3.38,2.87,7.75,4.02,11.38,6.47.54.36,1.04-.51.5-.86-3.56-2.4-7.88-3.52-11.18-6.32-.49-.41-1.2.29-.71.71h0Z"/>
  <path class="cls-1" d="M209.13,129.06l.27,5.14c.02.4.4.59.75.43,1.37-.62,2.75-1.24,4.12-1.86.25-.11.31-.47.18-.68-.15-.25-.44-.29-.68-.18-1.37.62-2.75,1.24-4.12,1.86l.75.43-.27-5.14c-.03-.64-1.03-.64-1,0h0Z"/>
  <path class="cls-1" d="M160.64,126.57c6.24.01,12.47-.44,18.65-1.32.63-.09.36-1.05-.27-.96-6.09.87-12.24,1.29-18.39,1.28-.64,0-.64,1,0,1h0Z"/>
  <path class="cls-1" d="M185.58,125.5c3.46.15,6.92,0,10.34-.47,3.07-.41,6.37-1.36,9.37-.1.59.25.85-.72.27-.96-2.96-1.24-6.19-.43-9.23,0-3.56.52-7.16.68-10.75.52-.64-.03-.64.97,0,1h0Z"/>
  <path class="cls-1" d="M47.08,137.98c-.53,2.27.38,4.62,2.27,5.96l-.1-.79c-1,.84-2.04,1.66-3.01,2.53-.57.51-1.2,1.36-.69,2.13.17.25.69.43.75.71.05.23-.22.55-.33.72-.31.48-.73.94-.85,1.51-.06.28-.03.57.1.83.16.31.42.39.67.61.43.39-.03,1.05-.17,1.52-.16.53-.27,1.08-.34,1.63-.29,2.27.09,4.56.48,6.8.11.63,1.07.36.96-.27-.38-2.17-.77-4.42-.44-6.61.08-.51.2-1.01.36-1.5.15-.46.4-.92.36-1.41-.02-.35-.19-.64-.46-.86-.17-.14-.53-.24-.56-.49-.05-.42.61-1.04.82-1.37.28-.45.53-.99.33-1.52-.12-.32-.36-.45-.6-.68-.49-.47.13-.89.51-1.21.94-.8,1.88-1.58,2.82-2.37.27-.22.14-.62-.1-.79-1.51-1.08-2.23-3.03-1.81-4.83.15-.63-.82-.89-.96-.27h0Z"/>
  <path class="cls-1" d="M45.22,151.41c-1.14-1.12-2.39-2.12-3.77-2.93-1.45-.85-3.06-1.39-4.54-2.19s-2.99-1.83-4.46-2.77c-1.6-1.02-3.2-2.04-4.8-3.06-.54-.35-1.05.52-.5.86,1.53.98,3.06,1.95,4.59,2.93s2.93,1.94,4.47,2.79c1.44.8,3.02,1.33,4.46,2.14,1.42.79,2.69,1.8,3.85,2.94.46.45,1.17-.26.71-.71h0Z"/>
  <path class="cls-1" d="M29.16,131.76c-.62,1.2.01,2.72,1.32,3.08l-.22-.84c-.7.77-1.5,1.51-2.11,2.34-.54.73-.3,1.46.38,1.99.84.65,1.78,1.19,2.67,1.77.94.61,1.89,1.22,2.84,1.81,3.81,2.39,7.68,4.68,11.62,6.86.56.31,1.07-.55.5-.86-3.44-1.91-6.84-3.9-10.18-5.97-1.64-1.01-3.27-2.05-4.88-3.1-.4-.26-.81-.53-1.21-.79-.3-.2-1.15-.57-1-1.04.07-.22.42-.48.57-.65s.32-.35.47-.52c.34-.38.69-.75,1.03-1.13.25-.28.15-.73-.22-.84-.67-.19-1.05-.98-.73-1.61.29-.57-.57-1.08-.86-.5h0Z"/>
  <path class="cls-1" d="M28.97,138.11l-.87,3.94c-.06.26.08.54.35.62.25.07.56-.08.62-.35l.87-3.94c.06-.26-.08-.54-.35-.62-.25-.07-.56.08-.62.35h0Z"/>
  <path class="cls-1" d="M28.4,137.07c-9.13.83-18.28,1.34-27.44,1.53l.48.37c-.33-1.02-.76-2.48-.13-3.47.43-.67,1.25-.74,1.97-.79.9-.06,1.8-.12,2.7-.18.64-.04.64-1.04,0-1-1.11.07-2.23.1-3.33.24-.83.1-1.62.39-2.11,1.1-.88,1.26-.49,3.01-.05,4.36.07.21.26.37.48.37,9.16-.19,18.32-.7,27.44-1.53.64-.06.64-1.06,0-1h0Z"/>
  <path class="cls-1" d="M.53,139.18c.08,3.84.04,7.69-.13,11.52-.02.35.33.54.63.48,8.17-1.43,16.34-2.87,24.51-4.3.63-.11.36-1.07-.27-.96-8.17,1.43-16.34,2.87-24.51,4.3l.63.48c.17-3.84.21-7.68.13-11.52-.01-.64-1.01-.64-1,0h0Z"/>
  <path class="cls-1" d="M25.44,146.72c2.56,3.23,5.68,5.92,8.94,8.41,3.54,2.71,7.19,5.28,10.8,7.89.52.38,1.02-.49.5-.86-3.55-2.58-7.14-5.1-10.63-7.76-3.25-2.48-6.37-5.17-8.92-8.39-.4-.5-1.1.21-.71.71h0Z"/>
  <path class="cls-1" d="M45.81,163.84c17.9-3.13,35.79-6.35,53.73-9.26,17.83-2.89,35.73-5.43,53.73-7.02,10.09-.9,20.21-1.49,30.34-1.7.64-.01.64-1.01,0-1-9.05.18-18.08.68-27.1,1.42-9.02.74-18.02,1.73-26.99,2.89-8.98,1.16-17.95,2.48-26.89,3.91-8.95,1.43-17.89,2.95-26.82,4.5-8.97,1.56-17.93,3.14-26.9,4.71-1.12.2-2.25.39-3.37.59-.63.11-.36,1.07.27.96h0Z"/>
  <path class="cls-1" d="M184.43,145.16v-12.37c0-.64-1-.64-1,0v12.37c0,.64,1,.64,1,0h0Z"/>
  <path class="cls-1" d="M182.94,145.59c3.43-.22,6.62,1.21,9.65,2.64,3.21,1.51,6.41,3.02,9.62,4.53.58.27,1.09-.59.5-.86-3.34-1.57-6.68-3.16-10.03-4.72-3.06-1.43-6.29-2.8-9.74-2.58-.64.04-.64,1.04,0,1h0Z"/>
  <path class="cls-1" d="M34.82,131.66c.64,0,.64-1,0-1s-.64,1,0,1h0Z"/>
  <path class="cls-1" d="M34.35,131.23c2.15.44,4.09,1.45,6.05,2.41,1.97.96,3.97,1.73,6.14,2.12s4.49.52,6.75.59c2.47.08,4.95.13,7.42.16,9.9.09,19.79-.27,29.68-.75s19.88-1.05,29.82-1.59c9.89-.53,19.79-1.07,29.68-1.6,9.89-.53,19.79-1.07,29.68-1.6l3.71-.2c.64-.03.64-1.03,0-1-19.79,1.07-39.58,2.13-59.37,3.2-19.66,1.06-39.36,2.49-59.06,2.55-2.77,0-5.54-.02-8.31-.08-2.65-.06-5.33-.09-7.97-.39-2.63-.3-5.07-1.02-7.45-2.17-2.12-1.02-4.2-2.15-6.52-2.62-.63-.13-.9.84-.27.96h0Z"/>
  <path class="cls-1" d="M154.03,74.98c9.58-.67,18.9-3.12,28.01-6.06,9.21-2.98,18.26-6.46,27.55-9.21,5.18-1.53,10.44-2.82,15.78-3.65.63-.1.36-1.06-.27-.96-9.49,1.48-18.66,4.4-27.71,7.52s-18.07,6.45-27.39,8.74c-5.25,1.29-10.58,2.24-15.98,2.62-.64.04-.64,1.05,0,1h0Z"/>
  <path class="cls-1" d="M186.11,38.56c-.44-4.97-.88-9.95-1.33-14.92-.34-3.78-.71-7.66-2.18-11.19-.79-1.91-1.91-3.65-3.43-5.07l-.22.84c4.29-1.79,8.59-3.59,12.88-5.38,1.07-.45,2.15-.9,3.22-1.34.5-.21,1.15-.63,1.7-.51.48.1.94.55,1.33.82,1.92,1.32,3.83,2.65,5.75,3.97l-.23-.56c-.22.8-.92,1.3-1.48,1.86-.51.52-.93,1.11-1.03,1.85-.14,1.05.16,2.19.29,3.23.15,1.19.3,2.38.45,3.57.6,4.72,1.2,9.44,1.8,14.16.08.63,1.08.64,1,0-.59-4.64-1.18-9.27-1.77-13.91-.15-1.15-.29-2.3-.44-3.45-.13-1.05-.43-2.22-.36-3.29.05-.86.71-1.39,1.28-1.96.53-.52,1.01-1.06,1.21-1.8.06-.23-.05-.44-.23-.56-2.05-1.42-4.1-2.84-6.16-4.25-.82-.56-1.52-.86-2.49-.5-1.16.42-2.29.95-3.43,1.43-4.52,1.89-9.05,3.78-13.57,5.67-.32.14-.53.55-.22.84,2.71,2.52,3.94,6.07,4.59,9.63.76,4.16.95,8.44,1.32,12.64.24,2.74.49,5.47.73,8.21.06.64,1.06.64,1,0h0Z"/>
  <path class="cls-1" d="M204,30.32c8.07-1.87,15.88-4.74,23.24-8.54.57-.3.07-1.16-.5-.86-7.28,3.76-15.02,6.59-23,8.44-.63.15-.36,1.11.27.96h0Z"/>
  <path class="cls-1" d="M186.11,37.56c-2.77,0-5.41.84-7.96,1.87s-5.17,2.2-7.74,3.33c-5.26,2.33-10.48,4.75-15.65,7.27-2.95,1.44-5.88,2.9-8.8,4.4-.57.29-.07,1.16.5.86,10.05-5.15,20.28-9.97,30.67-14.37,2.86-1.21,5.82-2.36,8.97-2.36.64,0,.64-1,0-1h0Z"/>
  <path class="cls-1" d="M172.43,47c-2.51,2.44-5.02,4.89-7.53,7.33-.36.35,0,.97.49.84,3.33-.96,6.66-1.93,9.99-2.89.3-.09.47-.46.3-.73-.88-1.41-1.66-2.86-2.36-4.37l-.43.75c1.95.04,3.89.07,5.84.11.44,0,.84-.08,1.11.33s.42.89.6,1.31c.35.83.64,1.68.89,2.54l.62-.62c-2.18-.52-4.41-.74-6.65-.64-.64.03-.64,1.03,0,1,2.15-.1,4.29.1,6.39.61.36.09.73-.24.62-.62-.29-.98-.63-1.93-1.03-2.87-.32-.76-.6-1.83-1.53-2-.48-.09-1.01-.04-1.5-.05l-1.74-.03c-1.2-.02-2.4-.04-3.6-.07-.41,0-.58.42-.43.75.7,1.5,1.48,2.96,2.36,4.37l.3-.73c-3.33.96-6.66,1.93-9.99,2.89l.49.84c2.51-2.44,5.02-4.89,7.53-7.33.46-.45-.25-1.16-.71-.71h0Z"/>
  <path class="cls-1" d="M193.59,43.6c1.88-2.8,4.05-5.39,6.47-7.73.58-.56,1.17-1.11,1.78-1.64.43-.37.72-.72,1.31-.38.39.23.74.59,1.08.89,1.26,1.12,2.41,2.34,3.46,3.66l.22-.84c-2.66.66-5.33,1.32-7.98,2.06-2.35.65-4.69,1.45-6.72,2.84-.53.36-.03,1.23.5.86,2.02-1.39,4.34-2.16,6.69-2.8,2.58-.71,5.17-1.36,7.76-2,.4-.1.44-.56.22-.84-1.19-1.48-2.51-2.86-3.96-4.09-.59-.5-1.31-1.14-2.15-.9-.42.12-.75.47-1.07.75-.36.31-.72.63-1.07.95-2.81,2.59-5.3,5.52-7.43,8.69-.36.54.51,1.04.86.5h0Z"/>
  <path class="cls-1" d="M208.56,38.76c.87-.07,1.66.28,2.42.66.84.43,1.68.87,2.52,1.3.57.29,1.08-.57.5-.86-.9-.46-1.79-.94-2.69-1.39-.86-.42-1.78-.79-2.75-.71-.27.02-.5.21-.5.5,0,.25.23.52.5.5h0Z"/>
  <path class="cls-1" d="M203.81,33.47c1.07-.21,2.16.44,3.1.87,1.08.49,2.15.99,3.23,1.48.58.27,1.09-.59.5-.86-1.2-.55-2.4-1.1-3.59-1.65-1.12-.51-2.25-1.05-3.51-.8-.63.12-.36,1.09.27.96h0Z"/>
  <path class="cls-1" d="M210,35.79c.59,1.4,1.28,2.76,2.07,4.06.33.55,1.2.05.86-.5-.78-1.3-1.47-2.66-2.07-4.06-.11-.25-.47-.3-.68-.18-.26.15-.29.43-.18.68h0Z"/>
  <path class="cls-1" d="M193.36,44.38l1.57,1.18c.42.31.76.57,1.3.46.64-.13,1.3-.45,1.91-.67.68-.25,1.36-.5,2.04-.76,2.56-.98,5.09-2.03,7.6-3.16.59-.26.08-1.13-.5-.86-2.28,1.02-4.58,1.98-6.91,2.88-1.13.44-2.26.86-3.4,1.26-.25.09-.54.24-.8.28-.38.06-.55-.16-.83-.37l-1.48-1.11c-.51-.39-1.01.48-.5.86h0Z"/>
  <path class="cls-1" d="M207.53,41.44l3.44,1.38c.25.1.55-.11.62-.35.08-.28-.1-.51-.35-.62l-3.44-1.38c-.25-.1-.55.11-.62.35-.08.28.1.51.35.62h0Z"/>
  <path class="cls-1" d="M208.61,49.89c.32-.78.95-1.44,1.44-2.13.52-.74,1.01-1.5,1.47-2.28.9-1.53,1.67-3.13,2.32-4.78.24-.6-.73-.86-.96-.27-.66,1.67-1.46,3.28-2.39,4.82-.45.75-.94,1.49-1.45,2.2s-1.07,1.35-1.39,2.16c-.24.6.73.86.96.27h0Z"/>
  <path class="cls-1" d="M208.83,49.45c.12-3.36.02-6.72-.29-10.07-.06-.64-1.06-.64-1,0,.32,3.35.41,6.71.29,10.07-.02.64.98.64,1,0h0Z"/>
  <path class="cls-1" d="M195.94,45.7c.26,2.73.65,5.44,1.19,8.13.05.26.37.42.62.35,3.5-1.08,7.02-2.1,10.56-3.04.62-.17.36-1.13-.27-.96-3.54.94-7.06,1.96-10.56,3.04l.62.35c-.52-2.6-.9-5.22-1.15-7.86-.06-.64-1.06-.64-1,0h0Z"/>
  <path class="cls-1" d="M201.27,43.55c-.24,2.97.4,5.9,1.06,8.78.14.63,1.11.36.96-.27-.63-2.8-1.26-5.63-1.02-8.52.05-.64-.95-.64-1,0h0Z"/>
  <path class="cls-1" d="M165.38,55.27s.09.03.13.05c.06.02-.1-.05-.02,0,.02,0,.04.02.06.03.09.04.18.09.26.14.17.1.33.2.5.3.39.23.8.4,1.26.42.26.01.51-.24.5-.5-.01-.28-.22-.49-.5-.5-.03,0-.05,0-.08,0-.02,0-.09,0,0,0,.09.01-.01,0-.02,0-.02,0-.04,0-.06-.01-.04-.01-.09-.02-.13-.04-.04-.01-.09-.05-.13-.05.02,0,.1.04.04.01-.02-.01-.05-.02-.07-.03-.04-.02-.08-.04-.12-.06-.08-.04-.16-.09-.25-.14-.35-.21-.7-.43-1.09-.56-.25-.08-.56.1-.62.35-.06.28.08.52.35.62h0Z"/>
  <path class="cls-1" d="M167.08,55.78c.07,2.48.37,4.95.87,7.38.04.19.28.39.48.37,2.59-.31,5.13-.88,7.58-1.75.6-.21.34-1.18-.27-.96-2.37.83-4.82,1.42-7.32,1.71l.48.37c-.49-2.34-.76-4.72-.84-7.11-.02-.64-1.02-.64-1,0h0Z"/>
  <path class="cls-1" d="M176.33,61.42c.99-1.5,1.89-3.05,2.68-4.66.39-.78.74-1.58,1.09-2.38.32-.72,1.01-.93,1.51-1.5.42-.48-.28-1.19-.71-.71-.48.55-1.19.79-1.55,1.46-.43.79-.74,1.67-1.14,2.48-.81,1.66-1.74,3.26-2.75,4.8-.36.54.51,1.04.86.5h0Z"/>
  <path class="cls-1" d="M179.76,53.13c-1.2-.05-2.39-.11-3.59-.15-1.03-.03-1.86.38-2.79.77-2.06.86-4.14,1.7-6.36,2.05-.63.1-.36,1.06.27.96,2.14-.33,4.16-1.13,6.15-1.96.95-.4,1.8-.86,2.85-.81,1.16.05,2.31.1,3.47.15.64.03.64-.97,0-1h0Z"/>
  <path class="cls-1" d="M176.18,61.33c.16-2.53.17-5.06.04-7.6-.03-.64-1.03-.64-1,0,.13,2.53.12,5.07-.04,7.6-.04.64.96.64,1,0h0Z"/>
  <path class="cls-1" d="M171.69,55.43c0,2.5.18,5,.55,7.48.04.27.38.41.62.35.29-.08.39-.35.35-.62-.36-2.39-.53-4.8-.52-7.21,0-.64-1-.64-1,0h0Z"/>
  <path class="cls-1" d="M206.14,86.64c-.36-4.76-.73-9.53-1.6-14.23-.22-1.19-.49-2.37-.76-3.55-.13-.56-.25-1.13-.33-1.71-.04-.29-.07-.59-.08-.89-.02-.4-.13-.48.23-.55,2.33-.44,4.65-.9,6.95-1.48,2.65-.66,5.27-1.43,7.86-2.3l-.63-.48c.38,7.39,1.36,14.74,2.94,21.97.14.63,1.1.36.96-.27-1.56-7.15-2.53-14.41-2.91-21.71-.02-.31-.31-.59-.63-.48-4.8,1.61-9.71,2.84-14.69,3.75-.36.06-.72.13-.94.45-.3.44-.15,1.2-.1,1.68.13,1.21.43,2.38.7,3.56.56,2.52.96,5.07,1.25,7.64.33,2.85.55,5.72.77,8.58.05.64,1.05.64,1,0h0Z"/>
  <path class="cls-1" d="M210.32,64.11c.39,6.92,2.49,13.61,2.9,20.53.04.64,1.04.64,1,0-.4-6.92-2.5-13.61-2.9-20.53-.04-.64-1.04-.64-1,0h0Z"/>
  <path class="cls-1" d="M204.6,73.26c4.71.36,8.96-1.94,13.25-3.52.6-.22.34-1.19-.27-.96-4.2,1.55-8.37,3.84-12.98,3.49-.64-.05-.64.95,0,1h0Z"/>
  <path class="cls-1" d="M182.08,92.56c-.21-.61-.36-1.39.03-1.97.31-.47.93-.67,1.41-.35.32.22.75-.07.75-.43.01-1.32,1.54-1.74,2.34-.76.23.29.76.13.84-.22.27-1.26,1.64-1.97,2.83-1.51.34.13.75-.28.62-.62-.6-1.52-.24-3.23.97-4.34.15-.14.2-.43.08-.61-.47-.67-.43-1.61.22-2.16.32-.27.68-.41.88-.79s.21-.8.33-1.19c.36-1.16,1.16-1.4,2.27-1.59.55-.09,1.09-.19,1.64-.28.27-.05.54-.1.82-.14.02,0,.95-.05.77.13-.23.24-.17.61.1.79,1.56.98,2.95,2.66,2.27,4.61-.08.23.09.58.35.62.58.08,1.1.49,1.13,1.11.03.58-.31,1.1-.12,1.69.12.38.42.71.82.8.07.02.63-.06.64-.05-.1-.09-.39.84-.42.91-.14.32.02.77.43.75.25,0,2.71-.19,2.68.07-.08.64.92.63,1,0,.2-1.65-2.84-1.1-3.68-1.07l.43.75c.24-.55.64-1.4.35-2-.12-.25-.37-.41-.64-.43-.4-.04-.7.29-.67-.33.02-.4.19-.77.17-1.18-.02-.32-.12-.62-.27-.89-.33-.59-.92-1-1.58-1.1l.35.62c.83-2.38-.81-4.52-2.73-5.73l.1.79c.38-.39.4-.95.07-1.38-.39-.52-1.05-.54-1.63-.45-.84.12-1.68.29-2.52.44-.76.13-1.53.23-2.13.76-.47.4-.77.97-.95,1.55-.09.28-.09.66-.22.92-.16.32-.61.47-.86.73-.85.86-.95,2.29-.26,3.27l.08-.61c-1.44,1.33-1.95,3.49-1.23,5.32l.62-.62c-1.67-.65-3.69.46-4.06,2.2l.84-.22c-1.37-1.69-4.02-.66-4.04,1.46l.75-.43c-.79-.53-1.85-.31-2.5.35-.8.82-.75,2.09-.41,3.1.2.61,1.17.35.96-.27h0Z"/>
  <path class="cls-1" d="M228.52,84.51c-.15-.61-.61-1.08-1.2-1.28-.29-.1-.59-.13-.89-.09-.35.05-.61.33-.93.39l.49.13c-.27-.22-.38-.57-.69-.76-.3-.19-.65-.29-1-.31-.91-.05-1.68.48-2.37,1l.75.43c-.12-1.48-1.89-2.21-2.89-.99h.71c-.39-.35-.66-.74-.84-1.24-.08-.22-.25-.35-.48-.37-1.21-.1-2.54-.15-3.61.52-.87.55-1.49,1.5-1.37,2.56l.75-.43c-1.08-.47-2.36-.11-2.92.96h.86c-.56-.74-1.49-1.13-2.4-.8s-1.4,1.27-1.29,2.17l.63-.48c-1.08-.4-2.22.02-2.9.92-.38.52.48,1.02.86.5.42-.56,1.14-.7,1.77-.46.28.1.67-.17.63-.48-.13-1.04,1.1-1.83,1.83-.87.21.28.67.37.86,0,.29-.55.95-.87,1.55-.6.3.13.8-.01.75-.43-.25-2.16,2.54-2.2,3.98-2.08l-.48-.37c.23.66.58,1.21,1.1,1.68.18.17.53.22.71,0,.38-.47,1.12-.44,1.18.28.03.33.42.68.75.43.49-.37,1.07-.85,1.71-.86.28,0,.6.08.78.3.16.19.18.39.41.53.47.3.74-.15,1.16-.26.46-.12.95.19,1.07.64.15.62,1.12.36.96-.27h0Z"/>
  <path class="cls-1" d="M190.57,94.29c.71.4.92,1.22,1.02,1.97s.24,1.79-.1,2.54c-.19.42-.59.6-.91.91-.26.26-.46.58-.58.93-.26.76-.17,1.59-.08,2.38.54,4.46.98,8.92,1.28,13.4.17,2.55.3,5.1.39,7.65.02.64,1.02.64,1,0-.17-4.73-.48-9.46-.92-14.18-.22-2.37-.5-4.73-.78-7.09-.11-.92-.2-1.93.6-2.57.65-.52,1.03-1.08,1.14-1.92.21-1.6,0-4.02-1.57-4.9-.56-.32-1.07.55-.5.86h0Z"/>
  <path class="cls-1" d="M207.76,102.63c.64,0,.64-1,0-1s-.64,1,0,1h0Z"/>
  <path class="cls-1" d="M207.41,102.23c.38,1.67.14,3.39-.66,4.89-.14.27-.03.67.3.73.74.15,1.2.77,1.07,1.53-.12.7-.53,1.32-.66,2.03-.06.33.14.62.48.63,1.08.05,1.14,1.46,1.14,2.25,0,1.05-.09,2.09-.26,3.13-.06.34.13.6.48.63.86.08,1.45.77,1.56,1.6.05.38.6.47.84.22.7-.75,2.5-2.47,3.43-1.01.14.22.45.33.68.18.85-.56,1.74-1.04,2.69-1.41.58-.23,2.51-1.14,2.84-.2.15.42.66.48.91.12.73-1.03,1.91-1.6,3.16-1.57.46,0,.62-.54.35-.85-.6-.7-.98-1.58-1.09-2.49-.05-.44-.05-.9.02-1.35.08-.48.3-.89.43-1.35.12-.41-.2-.88-.35-1.26-.18-.49-.35-.98-.47-1.49-.25-1.08-.21-2.21.39-3.17.13-.21.06-.43-.08-.61-.91-1.15-1.18-2.66-.79-4.06.11-.41-.36-.8-.73-.56-.73.46-1.49.85-2.3,1.13-.46.16-1.45.55-1.81,0-.17-.26-.55-.34-.79-.1-.63.64-1.33,1.16-2.2,1.4s-1.78.26-2.67.31c-.95.06-1.91.14-2.87.07-.91-.07-1.8-.23-2.71-.12-.63.07-.64,1.08,0,1,1.07-.13,2.11.12,3.17.15s2.08-.07,3.11-.13c.89-.06,1.8-.13,2.64-.44s1.6-.88,2.24-1.53l-.79-.1c1.19,1.8,4.2.02,5.47-.78l-.73-.56c-.49,1.77-.08,3.6,1.05,5.04l-.08-.61c-1.24,2.03-.47,4.34.35,6.37l.05-.39c-1.01,2.1-.69,4.57.82,6.34l.35-.85c-1.62-.03-3.1.74-4.03,2.06l.91.12c-.48-1.36-1.91-1.21-3.04-.86-1.4.43-2.73,1.07-3.96,1.88l.68.18c-.5-.8-1.42-1.12-2.34-.98-1.11.17-1.93,1.01-2.66,1.79l.84.22c-.18-1.29-1.26-2.21-2.53-2.33l.48.63c.31-1.86,1.15-6.52-1.84-6.64l.48.63c.19-1.02.9-1.95.68-3.02-.18-.89-.91-1.58-1.79-1.76l.3.73c.94-1.75,1.2-3.73.76-5.67-.14-.63-1.11-.36-.96.27h0Z"/>
  <path class="cls-1" d="M209.15,110.04c4.94-.31,9.88-.62,14.82-.93.64-.04.64-1.04,0-1-4.94.3-9.88.61-14.82.93-.64.04-.64,1.04,0,1h0Z"/>
  <path class="cls-1" d="M217.6,117.76c-.55-5.3-1.29-10.58-2.23-15.83-.11-.63-1.08-.36-.96.27.92,5.16,1.66,10.35,2.19,15.56.07.63,1.07.64,1,0h0Z"/>
  <path class="cls-1" d="M94.67,116.84c-.04-3.45-.09-6.9-.13-10.35l-.37.48c1.66-.26,3.32-.43,5-.52l-.5-.5c-.05,3.7-.1,7.39-.15,11.09l.5-.5c-1.58-.04-3.16.01-4.74.16-.64.06-.64,1.06,0,1,1.58-.14,3.16-.19,4.74-.16.27,0,.5-.23.5-.5.05-3.7.1-7.39.15-11.09,0-.26-.23-.51-.5-.5-1.76.09-3.52.28-5.26.56-.21.03-.37.28-.37.48.04,3.45.09,6.9.13,10.35,0,.64,1.01.64,1,0h0Z"/>
  <path class="cls-1" d="M75.47,97.85c1.72-.04,3.44-.04,5.16.02.86.03,1.72.07,2.58.12.09,0,.44-.04.48,0,.07.07-.02.42-.03.51-.03.46-.06.91-.08,1.37-.22,3.48-.43,6.96-.65,10.43l.5-.5c-2.93.06-5.86.13-8.79.21-.64.02-.64,1.02,0,1,2.93-.08,5.86-.14,8.79-.21.28,0,.48-.22.5-.5.24-3.93.49-7.87.73-11.8.04-.59.04-1.22-.64-1.43-.8-.25-1.82-.15-2.65-.18-1.97-.08-3.93-.09-5.9-.05-.64.01-.64,1.01,0,1h0Z"/>
  <path class="cls-1" d="M78.46,110.13c.1-4.22.25-8.44.46-12.66.03-.64-.97-.64-1,0-.21,4.22-.37,8.44-.46,12.66-.01.64.99.64,1,0h0Z"/>
  <path class="cls-1" d="M35.92,95.59c-4.67,0-9.35,0-14.02,0-.28,0-.49.23-.5.5-.17,4.24-.05,8.48.36,12.7.03.29.21.47.5.5,4.39.53,8.81.4,13.16-.36.63-.11.36-1.07-.27-.96-4.26.74-8.61.83-12.9.32l.5.5c-.41-4.22-.52-8.47-.36-12.7l-.5.5c4.67,0,9.35,0,14.02,0,.64,0,.64-1,0-1h0Z"/>
  <path class="cls-1" d="M28.92,109.09c.06-4.2.26-8.4.61-12.58.05-.64-.95-.64-1,0-.35,4.19-.55,8.38-.61,12.58,0,.64.99.64,1,0h0Z"/>
</svg>