<?xml version="1.0" encoding="UTF-8"?>
<svg id="photo_illustration" data-name="photo/illustration" xmlns="http://www.w3.org/2000/svg" viewBox="0 0 38.34 34.71">
  <defs>
    <style>
      .cls-1 {
        fill: none;
        stroke: #f7adc6;
        stroke-miterlimit: 10;
      }
    </style>
  </defs>
  <g id="OHSbxo">
    <g>
      <path class="cls-1" d="M22.73,26.51c.63-1.1,1.07-2.13,1.31-3.24.32-1.47.38-2.94.04-4.42-.95-4.16-3.44-6.93-7.53-8.11-5.64-1.64-11.52,1.76-13.04,7.44-1.52,5.64,1.85,11.49,7.49,12.96,3.39.88,6.5.21,9.28-1.92.23-.18.39-.2.64-.04.35.22.72.39,1.09.56.36.16.73.3,1.22.5-.18.15-.32.25-.45.36-3.98,3.49-8.53,4.55-13.51,2.76-5.03-1.8-7.97-5.54-8.66-10.83C-.45,14.36,6.19,7.3,14.42,7.7c5.27.25,9.95,3.71,11.75,8.69,1.3,3.63,1.03,7.16-.67,10.61-.13.26-.27.34-.53.25-.72-.24-1.45-.48-2.24-.74Z"/>
      <path class="cls-1" d="M20.14,13.14c-4.03,4.84-2.16,10.82,1.65,13.34,4.11,2.72,9.64,1.63,12.34-2.46,2.93-4.43,1.37-10.41-3.42-12.86.08-.07.15-.14.22-.19.42-.29.85-.58,1.27-.87q.51-.35,1.01,0c3.58,2.53,5.33,7.13,4.35,11.42-1.01,4.41-4.52,7.77-8.9,8.52-6.62,1.12-12.64-3.68-13.01-10.39-.15-2.77.71-5.21,2.37-7.4.05-.07.11-.14.17-.21.02-.02.04-.03.13-.09.58.38,1.19.77,1.82,1.18Z"/>
      <path class="cls-1" d="M27.19,10.21c-.57.04-1.1.03-1.61.12-.7.13-1.38.35-2.08.52-.13.03-.31.02-.4-.05-.56-.44-1.11-.9-1.68-1.37.05-.04.11-.1.19-.14,1.31-.69,2.7-1.09,4.17-1.23.26-.03.39.05.5.28.29.62.6,1.23.92,1.87Z"/>
      <path class="cls-1" d="M35.8,6.37c-2.12,1.45-4.16,2.84-6.2,4.23-.02-.02-.04-.03-.06-.05.06-.11.11-.22.17-.32.87-1.46,1.75-2.91,2.6-4.38.16-.28.31-.33.61-.24.92.26,1.85.49,2.88.76Z"/>
      <path class="cls-1" d="M28.44,10.33c-1.12-2.25-2.22-4.46-3.36-6.76,1.1.29,2.11.55,3.12.82.07.02.16.17.16.25.06,1.87.1,3.73.15,5.6,0,0-.01.02-.06.08Z"/>
      <path class="cls-1" d="M29.26,9.24c-.15-1.54-.29-3.09-.45-4.7,1.11.29,2.14.56,3.24.84-.92,1.32-1.81,2.61-2.7,3.89-.03-.01-.06-.03-.09-.04Z"/>
      <path class="cls-1" d="M32.49,4.76c-.26-.96-.54-1.96-.84-3.04,1.08.28,2.09.55,3.14.82-.79.76-1.54,1.49-2.3,2.22Z"/>
      <path class="cls-1" d="M32.82,5.16c.81-.77,1.56-1.49,2.34-2.22.27.97.54,1.97.84,3.05-1.08-.28-2.09-.54-3.18-.83Z"/>
      <path class="cls-1" d="M25.12,3.15c.8-.76,1.55-1.48,2.3-2.2.25.92.53,1.92.83,3.02-1.08-.28-2.09-.54-3.14-.82Z"/>
      <path class="cls-1" d="M32.12,4.98c-1.09-.28-2.09-.55-3.11-.81.77-.75,1.52-1.47,2.28-2.21.26.94.53,1.94.83,3.02Z"/>
      <path class="cls-1" d="M28.62,3.74c-.26-.95-.54-1.95-.84-3.04,1.08.28,2.1.55,3.15.82-.8.76-1.55,1.49-2.32,2.22Z"/>
    </g>
  </g>
</svg>